<svg width="1080" height="2042" version="1.1" xmlns="http://www.w3.org/2000/svg" desc="Created with imagetracer.js version 1.2.6" ><path fill="rgb(0,0,0)" stroke="rgb(0,0,0)" stroke-width="1" opacity="0" d="M 0 0 L 1080 0 L 1080 2042 L 844 2041.5 Q 847.8 2040.7 847 2035.5 Q 846 2031 839.5 2032 L 837 2033 L 836 2037.5 L 837 2041 L 839 2041.5 L 0 2042 L 0 0 Z M 966 7 L 965 8 L 932 10 L 928 12 L 922 12 L 912 15 L 903 16 L 864 30 L 845 41 Q 841 40 842 43 L 839 44 Q 836 43 837 46 L 824 55 Q 821 54 822 57 L 806 69 L 794 84 Q 795 86 792 85 L 786 95 Q 787 97 784 96 L 767 128 L 759 150 L 755 170 L 753 174 L 753 180 L 751 184 L 750 204 L 748 213 L 748 249 L 750 259 L 751 281 L 753 287 L 753 293 L 755 298 L 756 310 L 758 314 L 759 324 L 764 341 L 764 346 L 766 349 L 767 360 L 769 364 L 770 377 L 772 382 L 772 392 L 773 393 L 773 422 L 772 423 L 772 432 L 770 437 L 769 446 L 764 455 L 751 463 L 735 466 L 724 466 L 716 464 L 701 463 L 677 456 Q 670 458 669 455 L 656 455 L 655 458 L 670 466 L 675 467 L 687 473 L 690 473 L 697 477 L 724 484 L 742 484 Q 743 482 748 483 L 761 477 Q 763 478 762 475 L 767 473 Q 777 464 783 450 L 787 437 Q 786 430 789 428 L 789 420 L 790 419 L 790 383 L 789 382 L 789 373 L 783 345 L 776 326 L 772 306 L 770 302 L 769 290 L 766 277 L 766 269 L 764 262 L 764 245 L 763 244 L 764 203 L 766 197 L 767 183 L 769 179 L 770 169 L 772 166 L 772 162 L 776 149 L 783 135 L 784 130 L 801 103 Q 800 100 803 101 L 805 97 L 818 82 Q 820 83 819 81 L 838 65 Q 840 66 839 63 L 854 54 Q 857 55 856 52 L 859 52 L 887 38 L 912 30 L 930 26 L 936 26 L 941 24 L 968 23 L 969 22 L 1000 24 L 1016 29 L 1025 34 L 1026 37 L 1029 39 Q 1028 41 1031 40 Q 1035 45 1037 53 L 1037 71 L 1036 76 L 1028 96 L 1023 103 Q 1024 105 1022 104 L 1015 113 L 995 153 L 987 175 L 985 186 L 984 185 Q 981 186 982 184 L 979 182 L 978 179 Q 975 180 976 177 L 962 166 L 942 155 L 934 152 L 924 151 L 920 149 L 909 149 L 908 148 L 884 149 L 879 151 L 869 152 L 842 161 L 822 172 Q 818 171 819 174 L 816 175 Q 813 174 814 177 Q 805 180 799 187 L 797 190 L 794 192 Q 795 194 793 193 Q 780 205 775 226 L 776 232 L 783 235 L 803 236 L 807 238 L 815 239 L 846 253 L 877 271 L 889 275 L 891 277 Q 897 277 901 280 L 906 280 L 910 282 L 934 282 Q 936 279 943 280 Q 947 277 954 277 L 981 266 L 982 264 L 984 274 L 984 280 L 986 284 L 987 298 L 989 303 L 990 320 L 992 327 L 992 343 L 993 344 L 992 375 L 990 379 L 990 385 L 987 395 L 986 405 L 982 414 L 981 420 L 972 444 L 965 456 L 961 467 L 939 504 Q 940 507 937 506 L 936 510 Q 937 512 934 511 L 933 515 Q 934 517 931 516 L 931 519 L 929 519 L 922 532 Q 923 534 920 533 L 914 544 Q 915 546 912 545 L 908 554 L 892 577 Q 893 579 890 578 L 889 582 Q 890 584 887 583 L 861 627 L 836 676 Q 837 679 834 678 L 834 681 L 826 694 L 822 704 L 808 727 Q 809 730 806 729 L 805 734 L 781 770 L 778 771 L 778 773 L 761 790 Q 758 789 759 792 L 744 804 Q 741 803 742 806 L 735 810 Q 732 809 733 812 L 731 812 L 709 823 L 698 824 L 697 825 L 687 825 L 686 824 L 672 823 L 632 812 L 630 810 L 616 806 L 614 804 L 590 795 L 562 781 L 544 770 Q 540 771 541 768 L 537 767 L 520 756 Q 516 757 517 754 L 515 754 L 480 731 Q 477 732 478 729 L 476 728 Q 473 729 474 726 L 460 717 Q 457 718 458 715 L 455 714 L 432 697 Q 429 698 430 695 L 418 687 L 382 658 Q 379 659 380 656 L 376 653 Q 373 654 374 651 L 363 642 Q 360 643 361 640 L 352 633 Q 349 634 350 632 L 343 625 Q 340 626 341 623 L 340 623 L 331 614 Q 328 615 329 612 L 328 612 L 316 600 Q 313 601 314 599 L 311 597 L 310 594 L 307 592 L 281 566 L 275 561 L 274 558 Q 271 559 272 557 L 269 555 L 265 550 Q 266 547 264 548 L 252 534 L 249 533 Q 250 530 247 531 L 230 510 L 227 508 L 224 504 Q 225 501 222 502 L 221 500 Q 222 497 219 498 L 207 482 Q 208 479 205 480 L 196 466 Q 197 463 194 464 L 193 461 Q 194 458 191 459 L 191 457 L 180 438 L 176 426 L 175 415 L 174 414 L 174 398 L 173 397 L 173 387 L 172 386 L 171 326 L 170 325 L 168 300 L 166 296 L 165 285 L 163 282 L 162 273 L 160 271 L 160 267 L 155 257 L 154 251 L 137 221 Q 138 218 136 219 L 134 217 L 123 207 L 114 208 L 110 214 L 108 222 L 108 243 L 110 252 L 110 262 L 112 268 L 113 282 L 115 286 L 119 311 L 121 314 L 124 330 Q 128 333 127 341 L 129 343 L 130 350 L 143 380 L 144 385 L 146 387 L 152 405 L 154 407 L 161 431 L 161 447 L 160 448 L 160 459 L 158 465 L 157 480 L 155 485 L 154 497 L 152 501 L 151 512 L 147 525 L 146 535 L 144 539 L 144 544 L 129 600 L 127 603 L 121 626 L 119 629 L 119 633 L 116 639 L 112 656 L 108 665 L 101 692 L 99 695 L 98 703 L 96 705 L 96 709 L 91 722 L 87 741 L 85 744 L 85 748 L 83 751 L 82 760 L 80 763 L 79 772 L 77 776 L 76 785 L 73 794 L 73 799 L 69 813 L 68 825 L 66 830 L 65 845 L 63 850 L 63 859 L 62 860 L 62 872 L 60 881 L 60 929 L 61 930 L 63 954 L 65 959 L 66 970 L 68 973 L 71 987 L 73 989 L 74 995 L 76 997 L 79 1007 L 88 1022 Q 87 1025 90 1024 L 94 1032 Q 93 1034 96 1033 L 102 1043 L 118 1057 L 119 1060 L 144 1076 L 174 1090 L 197 1097 L 200 1099 L 203 1099 L 206 1101 L 225 1105 L 228 1107 L 238 1108 L 247 1111 L 252 1111 L 256 1113 L 262 1113 L 266 1115 L 280 1116 L 284 1118 Q 290 1116 292 1119 L 300 1119 L 305 1121 L 324 1122 L 330 1124 L 339 1124 L 347 1126 L 371 1127 L 379 1129 L 393 1129 L 394 1130 L 408 1130 L 417 1132 L 449 1133 L 457 1135 L 470 1135 L 471 1136 L 489 1137 L 490 1138 L 502 1138 L 510 1140 L 537 1141 L 545 1143 L 572 1144 L 580 1146 L 592 1146 L 593 1147 L 605 1147 L 612 1149 L 633 1150 L 640 1152 L 649 1152 L 655 1154 L 672 1155 L 678 1157 L 711 1161 L 715 1163 L 721 1163 L 725 1165 L 731 1165 L 740 1168 L 751 1169 L 754 1171 L 764 1172 L 767 1174 L 776 1175 Q 777 1178 783 1177 L 785 1179 L 793 1180 L 796 1182 L 812 1186 L 847 1200 L 853 1204 L 858 1205 L 891 1225 L 913 1244 Q 915 1243 914 1246 L 917 1247 L 929 1262 Q 928 1264 931 1263 L 934 1268 Q 933 1270 936 1269 L 945 1284 Q 944 1286 947 1285 L 947 1288 L 951 1293 L 964 1318 L 964 1321 L 970 1333 L 970 1336 L 975 1347 L 976 1354 L 978 1357 L 979 1365 L 982 1373 L 982 1378 L 986 1391 L 987 1404 L 989 1409 L 990 1428 L 992 1435 L 992 1452 L 993 1453 L 993 1517 L 992 1518 L 992 1537 L 990 1546 L 989 1570 L 987 1576 L 986 1594 L 984 1599 L 984 1606 L 982 1612 L 981 1625 L 979 1630 L 978 1642 L 976 1647 L 975 1659 L 973 1662 L 972 1673 L 970 1677 L 970 1682 L 968 1685 L 967 1695 L 965 1699 L 964 1708 L 956 1736 L 956 1740 L 954 1743 L 953 1751 L 942 1786 L 942 1790 L 940 1793 L 939 1800 L 937 1803 L 936 1810 L 933 1816 L 933 1820 L 931 1822 L 925 1844 L 920 1855 L 917 1867 L 915 1869 L 911 1884 L 909 1886 L 900 1910 L 893 1924 L 884 1949 L 883 1957 L 879 1963 L 884 1963 L 889 1954 Q 889 1947 893 1945 L 893 1942 L 897 1936 L 904 1917 L 906 1915 L 918 1883 L 920 1881 L 920 1878 L 922 1876 L 929 1857 L 929 1854 L 931 1852 L 937 1832 L 939 1830 Q 939 1823 942 1821 L 943 1814 L 947 1807 L 948 1800 L 953 1788 L 957 1771 L 961 1762 L 962 1754 L 964 1751 L 965 1743 L 967 1740 L 968 1732 L 972 1722 L 973 1713 L 975 1710 L 979 1688 L 981 1684 L 982 1674 L 984 1670 L 984 1665 L 986 1661 L 990 1634 L 992 1629 L 993 1616 L 997 1600 L 998 1584 L 1001 1569 L 1001 1560 L 1003 1554 L 1004 1529 L 1006 1520 L 1006 1500 L 1007 1499 L 1007 1444 L 1006 1443 L 1006 1426 L 1004 1418 L 1003 1399 L 1001 1394 L 1001 1387 L 998 1377 L 997 1367 L 986 1330 L 975 1304 L 961 1279 L 953 1268 Q 954 1265 951 1266 L 947 1260 Q 948 1257 945 1258 L 942 1254 Q 943 1251 940 1252 L 934 1244 L 914 1224 Q 911 1225 912 1223 L 900 1213 Q 897 1214 898 1211 L 872 1194 L 833 1175 L 827 1174 L 817 1169 Q 809 1169 805 1165 L 801 1165 L 792 1161 L 773 1157 L 769 1155 L 759 1154 L 756 1152 Q 749 1153 747 1150 L 720 1146 L 716 1144 L 702 1143 L 697 1141 L 682 1140 L 678 1138 L 670 1138 L 665 1136 L 647 1135 L 641 1133 L 632 1133 L 631 1132 L 621 1132 L 615 1130 L 592 1129 L 585 1127 L 573 1127 L 572 1126 L 560 1126 L 552 1124 L 539 1124 L 530 1122 L 501 1121 L 492 1119 L 478 1119 L 477 1118 L 462 1118 L 454 1116 L 426 1115 L 417 1113 L 405 1113 L 397 1111 L 373 1110 L 366 1108 L 356 1108 L 355 1107 L 339 1106 L 338 1105 L 330 1105 L 329 1104 L 320 1104 L 314 1102 L 297 1101 L 280 1097 L 266 1096 L 261 1094 L 250 1093 L 246 1091 L 235 1090 L 231 1088 L 222 1087 L 219 1085 L 195 1079 L 193 1077 L 187 1076 L 185 1074 L 175 1071 L 157 1062 L 137 1048 Q 134 1049 135 1046 L 128 1041 L 126 1038 L 123 1037 Q 124 1034 121 1035 L 121 1033 L 120 1033 L 102 1011 L 88 982 L 80 954 L 79 940 L 77 934 L 77 916 L 76 915 L 77 877 L 79 869 L 80 850 L 82 845 L 83 830 L 85 826 L 85 821 L 87 816 L 88 805 L 90 801 L 91 791 L 93 787 L 96 770 L 98 767 L 102 746 L 107 732 L 108 724 L 112 714 L 116 696 L 118 693 L 119 685 L 123 676 L 127 659 L 129 656 L 130 648 L 137 629 L 138 621 L 140 619 L 141 611 L 143 608 L 147 590 L 149 587 L 149 583 L 151 580 L 152 572 L 154 569 L 155 560 L 157 558 L 158 549 L 163 533 L 163 528 L 165 525 L 166 514 L 168 510 L 170 490 L 171 489 L 171 476 L 174 460 L 177 458 L 185 472 Q 184 474 187 473 Q 195 490 208 505 Q 207 507 210 506 L 211 510 L 230 533 Q 229 535 232 534 L 241 547 L 244 549 Q 243 551 246 550 L 253 559 Q 255 558 254 561 L 257 562 L 261 568 Q 260 570 263 569 L 268 576 L 297 603 L 300 608 L 309 615 Q 311 614 310 617 L 325 630 Q 324 632 327 631 L 327 633 L 340 643 Q 342 642 341 645 L 343 645 L 343 647 L 349 651 Q 351 650 350 653 L 362 662 Q 364 661 363 664 L 379 676 Q 381 675 380 678 L 396 690 Q 398 689 397 692 L 402 695 Q 404 694 403 697 L 406 698 Q 408 697 407 700 L 420 709 Q 422 708 421 711 L 432 718 Q 434 717 433 720 L 473 748 Q 475 747 474 750 L 478 751 Q 508 774 543 793 Q 546 792 545 795 L 556 799 L 561 803 L 585 815 L 588 815 L 596 820 L 602 821 L 604 823 L 625 831 L 632 832 L 639 835 L 643 835 L 646 837 L 656 838 L 661 840 L 675 841 L 676 842 L 696 842 L 720 837 Q 742 828 758 812 L 761 810 L 762 807 L 765 806 Q 767 807 766 805 L 769 803 L 773 796 L 776 795 Q 775 792 778 793 L 784 786 Q 783 783 786 784 L 803 761 Q 802 758 805 759 L 845 689 Q 844 685 847 686 L 847 684 L 858 665 L 862 655 L 887 613 Q 886 610 889 611 L 890 608 Q 889 605 892 606 L 893 603 Q 892 600 895 601 L 901 591 Q 900 588 903 589 L 904 586 Q 903 583 906 584 L 956 506 L 981 458 L 984 448 L 989 438 L 990 432 L 992 430 L 993 423 L 995 420 L 998 405 L 1000 401 L 1001 390 L 1003 385 L 1005 356 L 1006 355 L 1006 318 L 1004 311 L 1004 304 L 1001 291 L 1000 274 L 999 273 L 999 255 L 1000 250 L 1005 243 Q 1007 244 1006 242 L 1011 238 L 1015 232 L 999 231 L 995 230 L 997 225 L 998 206 L 1000 200 L 1001 186 L 1003 182 L 1003 177 L 1007 163 L 1021 134 L 1037 107 L 1043 91 L 1045 89 L 1051 68 L 1051 49 L 1050 44 L 1042 31 L 1038 27 L 1036 24 L 1019 15 L 1002 10 L 966 7 Z M 890 526 L 888 527 Q 883 528 884 533 L 880 533 L 876 536 L 871 537 L 865 541 L 839 552 L 837 556 L 835 558 L 823 562 L 819 565 L 816 565 L 808 570 L 801 572 L 783 581 Q 779 580 780 583 L 790 580 L 836 559 Q 840 558 841 561 L 878 545 L 888 539 L 891 541 L 896 539 L 898 536 Q 899 530 897 528 L 890 526 Z M 526 573 L 528 578 L 547 587 L 567 594 L 577 595 L 582 597 L 594 597 L 595 598 L 620 598 L 621 597 L 667 597 L 689 601 L 749 629 L 764 640 L 771 640 Q 775 636 776 630 L 775 616 L 772 610 L 766 603 Q 763 604 764 601 L 759 600 L 750 595 L 710 580 L 703 578 L 698 578 L 694 576 L 681 576 L 680 575 L 647 576 L 639 578 L 629 578 L 622 580 L 582 582 L 581 583 L 548 580 L 526 573 Z M 629 631 L 629 633 L 638 640 L 640 643 Q 642 642 641 645 L 646 648 Q 648 647 647 650 L 657 656 Q 659 655 658 658 L 661 658 L 670 664 L 687 672 L 712 678 L 723 678 Q 725 675 732 676 L 741 671 L 742 668 L 748 664 Q 747 661 750 662 L 751 654 Q 738 652 730 656 L 710 656 L 706 654 L 696 653 L 689 650 L 685 650 L 683 648 Q 676 648 674 645 L 671 645 L 669 643 L 646 636 L 643 634 L 629 631 Z M 772 1431 L 764 1434 Q 761 1433 762 1436 L 759 1438 L 768 1442 L 771 1444 L 772 1447 L 775 1448 L 780 1458 L 783 1468 L 784 1481 L 785 1482 L 785 1494 L 786 1495 L 785 1498 L 783 1533 L 781 1538 L 780 1551 L 776 1564 L 776 1569 L 773 1576 L 772 1584 L 770 1587 L 769 1595 L 767 1598 L 766 1606 L 762 1615 L 762 1619 L 755 1645 L 751 1655 L 750 1663 L 748 1666 Q 747 1668 750 1667 L 751 1662 L 756 1653 L 762 1635 L 766 1628 L 780 1589 L 784 1572 L 786 1569 L 787 1561 L 789 1558 L 790 1548 L 792 1545 L 792 1540 L 795 1530 L 795 1524 L 797 1519 L 797 1510 L 798 1509 L 798 1470 L 794 1453 L 789 1444 L 787 1441 Q 782 1433 772 1431 Z M 868 1978 L 865 1979 L 861 1984 L 862 1993 L 869 1996 Q 873 1997 875 1994 Q 880 1992 878 1983 Q 876 1977 868 1978 Z M 854 2007 L 853 2008 L 850 2008 Q 851 2011 848 2010 L 847 2015 L 848 2019 L 855 2023 L 860 2021 L 862 2018 L 861 2011 Q 859 2007 854 2007 Z " /><path fill="rgb(0,0,0)" stroke="rgb(0,0,0)" stroke-width="1" opacity="0" d="M 901.5 161 L 911.5 161 L 912.5 162 L 927.5 163 L 930.5 165 L 938.5 166 L 953.5 172 L 970 183 Q 968.9 185.7 971.5 185 L 973 188 Q 975.7 186.9 975 189.5 L 981 198.5 L 983 213.5 L 982 214.5 L 981 230.5 L 977.5 236 L 958.5 243 Q 949 243 942.5 246 L 911.5 246 L 905.5 244 L 891.5 243 L 887.5 241 L 882.5 241 L 878.5 239 L 869.5 238 L 865.5 236 L 856.5 235 L 847.5 232 L 842.5 232 L 838.5 230 L 826.5 229 L 822.5 227 L 813.5 227 L 805.5 225 L 790 225 L 790 222.5 L 795 214 L 798 212.5 L 812.5 197 L 815 195.5 Q 814.3 193.3 816.5 194 L 819 193 Q 817.9 190.3 820.5 191 L 823 190 Q 821.9 187.3 824.5 188 L 842.5 177 L 861.5 169 L 885.5 163 L 892.5 163 L 901.5 161 Z " /><path fill="rgb(0,0,0)" stroke="rgb(0,0,0)" stroke-width="1" opacity="0" d="M 119 219 L 124.5 219 L 125 220.5 L 129 225.5 L 140 247.5 L 146 264.5 L 147 271.5 L 149 274.5 L 152 290.5 L 154 294.5 L 155 307.5 L 157 311.5 L 158 330.5 L 160 338.5 L 160 354.5 L 161 355.5 L 161 366.5 L 162 367.5 L 162 394.5 L 160 393.5 L 154 377.5 L 152 375.5 L 151 369.5 L 146 357.5 L 146 353.5 L 144 351.5 L 143 344.5 L 141 341.5 L 140 334.5 L 133 315.5 L 132 307.5 L 130 304.5 L 130 300.5 L 127 292.5 L 126 282.5 L 124 278.5 L 123 266.5 L 121 260.5 L 120 244.5 L 119 243.5 L 119 219 Z " /><path fill="rgb(0,0,0)" stroke="rgb(0,0,0)" stroke-width="1" opacity="0" d="M 890.5 530 L 894 532.5 L 893 536 L 889 536 L 889 534.5 L 888 532.5 L 890.5 530 Z " /><path fill="rgb(28,28,26)" stroke="rgb(28,28,26)" stroke-width="1" opacity="1" d="M 965.5 7 L 1001.5 10 L 1018.5 15 L 1036 24 L 1037.5 27 L 1042 30.5 L 1050 43.5 L 1051 48.5 L 1051 67.5 L 1045 88.5 L 1043 90.5 L 1037 106.5 L 1021 133.5 L 1007 162.5 L 1003 176.5 L 1003 181.5 L 1001 185.5 L 1000 199.5 L 998 205.5 L 997 224.5 L 995 229.5 L 998.5 231 L 1015 232 L 1010.5 238 L 1006 241.5 Q 1006.8 243.8 1004.5 243 L 1000 249.5 L 999 254.5 L 999 272.5 L 1000 273.5 L 1001 290.5 L 1004 303.5 L 1004 310.5 L 1006 317.5 L 1006 354.5 L 1005 355.5 L 1003 384.5 L 1001 389.5 L 1000 400.5 L 998 404.5 L 995 419.5 L 993 422.5 L 992 429.5 L 990 431.5 L 989 437.5 L 984 447.5 L 981 457.5 L 956 505.5 L 906 584 Q 903.3 582.9 904 585.5 L 903 589 Q 900.3 587.9 901 590.5 L 895 601 Q 892.3 599.9 893 602.5 L 892 606 Q 889.3 604.9 890 607.5 L 889 611 Q 886.3 609.9 887 612.5 L 862 654.5 L 858 664.5 L 847 683.5 L 847 686 Q 844 684.8 845 688.5 L 805 759 Q 802.3 757.9 803 760.5 L 786 784 Q 783.3 782.9 784 785.5 L 777.5 793 Q 775.3 792.3 776 794.5 L 773 796 L 769 803 L 766 804.5 Q 766.8 806.8 764.5 806 L 762 807 L 760.5 810 L 757.5 812 Q 742 828 719.5 837 L 695.5 842 L 675.5 842 L 674.5 841 L 660.5 840 L 655.5 838 L 645.5 837 L 642.5 835 L 638.5 835 L 631.5 832 L 624.5 831 L 603.5 823 L 601.5 821 L 595.5 820 L 587.5 815 L 584.5 815 L 560.5 803 L 555.5 799 L 545 795 Q 546.3 792 542.5 793 Q 508.3 773.7 477.5 751 L 474 750 Q 475.1 747.3 472.5 748 L 433 720 Q 434.1 717.3 431.5 718 L 421 711 Q 422.1 708.3 419.5 709 L 407 700 Q 408.1 697.3 405.5 698 L 403 697 Q 404.1 694.3 401.5 695 L 397 692 Q 398.1 689.3 395.5 690 L 380 678 Q 381.1 675.3 378.5 676 L 363 663.5 Q 363.8 661.3 361.5 662 L 350 653 Q 351.1 650.3 348.5 651 L 343 647 L 343 645 L 341 645 Q 342.1 642.3 339.5 643 L 327 633 L 327 631 Q 324.3 632.1 325 629.5 L 310 616.5 Q 310.8 614.3 308.5 615 L 300 608 L 296.5 603 L 268 575.5 L 262.5 569 Q 260.3 569.8 261 567.5 L 257 562 L 254 560.5 Q 254.8 558.3 252.5 559 L 246 550 Q 243.3 551.1 244 548.5 L 241 547 L 232 534 Q 229.3 535.1 230 532.5 L 211 509.5 L 210 506 Q 207.3 507.1 208 504.5 Q 195.3 490.5 187 473 Q 184.3 474.1 185 471.5 L 177 458 L 174 459.5 L 171 475.5 L 171 488.5 L 170 489.5 L 168 509.5 L 166 513.5 L 165 524.5 L 163 527.5 L 163 532.5 L 158 548.5 L 157 557.5 L 155 559.5 L 154 568.5 L 152 571.5 L 151 579.5 L 149 582.5 L 149 586.5 L 147 589.5 L 143 607.5 L 141 610.5 L 140 618.5 L 138 620.5 L 137 628.5 L 130 647.5 L 129 655.5 L 127 658.5 L 123 675.5 L 119 684.5 L 118 692.5 L 116 695.5 L 112 713.5 L 108 723.5 L 107 731.5 L 102 745.5 L 98 766.5 L 96 769.5 L 93 786.5 L 91 790.5 L 90 800.5 L 88 804.5 L 87 815.5 L 85 820.5 L 85 825.5 L 83 829.5 L 82 844.5 L 80 849.5 L 79 868.5 L 77 876.5 L 76 914.5 L 77 915.5 L 77 933.5 L 79 939.5 L 80 953.5 L 88 981.5 L 102 1010.5 L 119.5 1033 L 121 1033 L 121 1035 Q 123.7 1033.9 123 1036.5 L 126 1038 L 127.5 1041 L 135 1046 Q 133.9 1048.7 136.5 1048 L 156.5 1062 L 174.5 1071 L 184.5 1074 L 186.5 1076 L 192.5 1077 L 194.5 1079 L 218.5 1085 L 221.5 1087 L 230.5 1088 L 234.5 1090 L 245.5 1091 L 249.5 1093 L 260.5 1094 L 265.5 1096 L 279.5 1097 L 296.5 1101 L 313.5 1102 L 319.5 1104 L 328.5 1104 L 329.5 1105 L 337.5 1105 L 338.5 1106 L 354.5 1107 L 355.5 1108 L 365.5 1108 L 372.5 1110 L 396.5 1111 L 404.5 1113 L 416.5 1113 L 425.5 1115 L 453.5 1116 L 461.5 1118 L 476.5 1118 L 477.5 1119 L 491.5 1119 L 500.5 1121 L 529.5 1122 L 538.5 1124 L 551.5 1124 L 559.5 1126 L 571.5 1126 L 572.5 1127 L 584.5 1127 L 591.5 1129 L 614.5 1130 L 620.5 1132 L 630.5 1132 L 631.5 1133 L 640.5 1133 L 646.5 1135 L 664.5 1136 L 669.5 1138 L 677.5 1138 L 681.5 1140 L 696.5 1141 L 701.5 1143 L 715.5 1144 L 719.5 1146 L 746.5 1150 Q 749.2 1152.8 755.5 1152 L 758.5 1154 L 768.5 1155 L 772.5 1157 L 791.5 1161 L 800.5 1165 L 804.5 1165 Q 809 1168.5 816.5 1169 L 826.5 1174 L 832.5 1175 L 871.5 1194 L 898 1211 Q 896.9 1213.7 899.5 1213 L 912 1222.5 Q 911.3 1224.8 913.5 1224 L 934 1243.5 L 940 1252 Q 942.7 1250.9 942 1253.5 L 945 1258 Q 947.7 1256.9 947 1259.5 L 951 1266 Q 953.7 1264.9 953 1267.5 L 961 1278.5 L 975 1303.5 L 986 1329.5 L 997 1366.5 L 998 1376.5 L 1001 1386.5 L 1001 1393.5 L 1003 1398.5 L 1004 1417.5 L 1006 1425.5 L 1006 1442.5 L 1007 1443.5 L 1007 1498.5 L 1006 1499.5 L 1006 1519.5 L 1004 1528.5 L 1003 1553.5 L 1001 1559.5 L 1001 1568.5 L 998 1583.5 L 997 1599.5 L 993 1615.5 L 992 1628.5 L 990 1633.5 L 986 1660.5 L 984 1664.5 L 984 1669.5 L 982 1673.5 L 981 1683.5 L 979 1687.5 L 975 1709.5 L 973 1712.5 L 972 1721.5 L 968 1731.5 L 967 1739.5 L 965 1742.5 L 964 1750.5 L 962 1753.5 L 961 1761.5 L 957 1770.5 L 953 1787.5 L 948 1799.5 L 947 1806.5 L 943 1813.5 L 942 1820.5 Q 939 1823.5 939 1829.5 L 937 1831.5 L 931 1851.5 L 929 1853.5 L 929 1856.5 L 922 1875.5 L 920 1877.5 L 920 1880.5 L 918 1882.5 L 906 1914.5 L 904 1916.5 L 897 1935.5 L 893 1941.5 L 893 1944.5 Q 889.3 1947.3 889 1953.5 L 883.5 1963 L 879 1962.5 L 883 1956.5 L 884 1948.5 L 893 1923.5 L 900 1909.5 L 909 1885.5 L 911 1883.5 L 915 1868.5 L 917 1866.5 L 920 1854.5 L 925 1843.5 L 931 1821.5 L 933 1819.5 L 933 1815.5 L 936 1809.5 L 937 1802.5 L 939 1799.5 L 940 1792.5 L 942 1789.5 L 942 1785.5 L 953 1750.5 L 954 1742.5 L 956 1739.5 L 956 1735.5 L 964 1707.5 L 965 1698.5 L 967 1694.5 L 968 1684.5 L 970 1681.5 L 970 1676.5 L 972 1672.5 L 973 1661.5 L 975 1658.5 L 976 1646.5 L 978 1641.5 L 979 1629.5 L 981 1624.5 L 982 1611.5 L 984 1605.5 L 984 1598.5 L 986 1593.5 L 987 1575.5 L 989 1569.5 L 990 1545.5 L 992 1536.5 L 992 1517.5 L 993 1516.5 L 993 1452.5 L 992 1451.5 L 992 1434.5 L 990 1427.5 L 989 1408.5 L 987 1403.5 L 986 1390.5 L 982 1377.5 L 982 1372.5 L 979 1364.5 L 978 1356.5 L 976 1353.5 L 975 1346.5 L 970 1335.5 L 970 1332.5 L 964 1320.5 L 964 1317.5 L 951 1292.5 L 947 1287.5 L 947 1285 Q 944.3 1286.1 945 1283.5 L 936 1269 Q 933.3 1270.1 934 1267.5 L 931 1263 Q 928.3 1264.1 929 1261.5 L 917 1247 L 914 1245.5 Q 914.8 1243.3 912.5 1244 L 890.5 1225 L 857.5 1205 L 852.5 1204 L 846.5 1200 L 811.5 1186 L 795.5 1182 L 792.5 1180 L 784.5 1179 L 782.5 1177 Q 777.2 1177.8 775.5 1175 L 766.5 1174 L 763.5 1172 L 753.5 1171 L 750.5 1169 L 739.5 1168 L 730.5 1165 L 724.5 1165 L 720.5 1163 L 714.5 1163 L 710.5 1161 L 677.5 1157 L 671.5 1155 L 654.5 1154 L 648.5 1152 L 639.5 1152 L 632.5 1150 L 611.5 1149 L 604.5 1147 L 592.5 1147 L 591.5 1146 L 579.5 1146 L 571.5 1144 L 544.5 1143 L 536.5 1141 L 509.5 1140 L 501.5 1138 L 489.5 1138 L 488.5 1137 L 470.5 1136 L 469.5 1135 L 456.5 1135 L 448.5 1133 L 416.5 1132 L 407.5 1130 L 393.5 1130 L 392.5 1129 L 378.5 1129 L 370.5 1127 L 346.5 1126 L 338.5 1124 L 329.5 1124 L 323.5 1122 L 304.5 1121 L 299.5 1119 L 291.5 1119 Q 289.8 1116.3 283.5 1118 L 279.5 1116 L 265.5 1115 L 261.5 1113 L 255.5 1113 L 251.5 1111 L 246.5 1111 L 237.5 1108 L 227.5 1107 L 224.5 1105 L 205.5 1101 L 202.5 1099 L 199.5 1099 L 196.5 1097 L 173.5 1090 L 143.5 1076 L 119 1060 L 117.5 1057 L 102 1042.5 L 96 1033 Q 93.3 1034.1 94 1031.5 L 90 1024 Q 87 1025.3 88 1021.5 L 79 1006.5 L 76 996.5 L 74 994.5 L 73 988.5 L 71 986.5 L 68 972.5 L 66 969.5 L 65 958.5 L 63 953.5 L 61 929.5 L 60 928.5 L 60 880.5 L 62 871.5 L 62 859.5 L 63 858.5 L 63 849.5 L 65 844.5 L 66 829.5 L 68 824.5 L 69 812.5 L 73 798.5 L 73 793.5 L 76 784.5 L 77 775.5 L 79 771.5 L 80 762.5 L 82 759.5 L 83 750.5 L 85 747.5 L 85 743.5 L 87 740.5 L 91 721.5 L 96 708.5 L 96 704.5 L 98 702.5 L 99 694.5 L 101 691.5 L 108 664.5 L 112 655.5 L 116 638.5 L 119 632.5 L 119 628.5 L 121 625.5 L 127 602.5 L 129 599.5 L 144 543.5 L 144 538.5 L 146 534.5 L 147 524.5 L 151 511.5 L 152 500.5 L 154 496.5 L 155 484.5 L 157 479.5 L 158 464.5 L 160 458.5 L 160 447.5 L 161 446.5 L 161 430.5 L 154 406.5 L 152 404.5 L 146 386.5 L 144 384.5 L 143 379.5 L 130 349.5 L 129 342.5 L 127 340.5 Q 127.5 333 124 329.5 L 121 313.5 L 119 310.5 L 115 285.5 L 113 281.5 L 112 267.5 L 110 261.5 L 110 251.5 L 108 242.5 L 108 221.5 L 110 213.5 L 113.5 208 L 122.5 207 L 134 216.5 L 135.5 219 Q 137.8 218.3 137 220.5 L 154 250.5 L 155 256.5 L 160 266.5 L 160 270.5 L 162 272.5 L 163 281.5 L 165 284.5 L 166 295.5 L 168 299.5 L 170 324.5 L 171 325.5 L 172 385.5 L 173 386.5 L 173 396.5 L 174 397.5 L 174 413.5 L 175 414.5 L 176 425.5 L 180 437.5 L 191 456.5 L 191 459 Q 193.7 457.9 193 460.5 L 194 464 Q 196.7 462.9 196 465.5 L 205 480 Q 207.7 478.9 207 481.5 L 219 498 Q 221.7 496.9 221 499.5 L 222 502 Q 224.7 500.9 224 503.5 L 227 508 L 230 509.5 L 247 531 Q 249.7 529.9 249 532.5 L 252 534 L 263.5 548 Q 265.8 547.3 265 549.5 L 269 555 L 272 556.5 Q 271.3 558.8 273.5 558 L 275 561 L 281 565.5 L 306.5 592 L 309.5 594 L 311 597 L 314 598.5 Q 313.3 600.8 315.5 600 L 327.5 612 L 329 612 Q 327.9 614.7 330.5 614 L 339.5 623 L 341 623 Q 339.9 625.7 342.5 625 L 350 631.5 Q 349.3 633.8 351.5 633 L 361 640 Q 359.9 642.7 362.5 642 L 374 651 Q 372.9 653.7 375.5 653 L 380 656 Q 378.9 658.7 381.5 658 L 417.5 687 L 430 695 Q 428.9 697.7 431.5 697 L 454.5 714 L 458 715 Q 456.9 717.7 459.5 717 L 474 726 Q 472.9 728.7 475.5 728 L 478 729 Q 476.9 731.7 479.5 731 L 514.5 754 L 517 754 Q 515.8 757 519.5 756 L 536.5 767 L 541 768 Q 539.8 771 543.5 770 L 561.5 781 L 589.5 795 L 613.5 804 L 615.5 806 L 629.5 810 L 631.5 812 L 671.5 823 L 685.5 824 L 686.5 825 L 696.5 825 L 697.5 824 L 708.5 823 L 730.5 812 L 733 812 Q 731.9 809.3 734.5 810 L 742 806 Q 740.9 803.3 743.5 804 L 759 791.5 Q 758.3 789.3 760.5 790 L 778 772.5 L 778 771 L 781 769.5 L 805 733.5 L 806 729 Q 809 730.3 808 726.5 L 822 703.5 L 826 693.5 L 834 680.5 L 834 678 Q 837 679.3 836 675.5 L 861 626.5 L 887 583 Q 889.7 584.1 889 581.5 L 890 578 Q 892.7 579.1 892 576.5 L 908 553.5 L 912 545 Q 914.7 546.1 914 543.5 L 920 533 Q 922.7 534.1 922 531.5 L 929 519 L 931 519 L 931 516 Q 933.7 517.1 933 514.5 L 934 511 Q 936.7 512.1 936 509.5 L 937 506 Q 940 507.3 939 503.5 L 961 466.5 L 965 455.5 L 972 443.5 L 981 419.5 L 982 413.5 L 986 404.5 L 987 394.5 L 990 384.5 L 990 378.5 L 992 374.5 L 993 343.5 L 992 342.5 L 992 326.5 L 990 319.5 L 989 302.5 L 987 297.5 L 986 283.5 L 984 279.5 L 984 273.5 L 981.5 264 L 981 266 L 953.5 277 Q 946.5 277 942.5 280 Q 936.4 279.4 933.5 282 L 909.5 282 L 905.5 280 L 900.5 280 Q 897.3 276.7 890.5 277 L 888.5 275 L 876.5 271 L 845.5 253 L 814.5 239 L 806.5 238 L 802.5 236 L 782.5 235 L 776 232 L 775 225.5 Q 779.6 205.1 792.5 193 Q 794.8 193.8 794 191.5 L 797 190 L 798.5 187 Q 805.1 180.2 814 177 Q 812.9 174.3 815.5 175 L 819 174 Q 817.8 171 821.5 172 L 841.5 161 L 868.5 152 L 878.5 151 L 883.5 149 L 907.5 148 L 908.5 149 L 919.5 149 L 923.5 151 L 933.5 152 L 941.5 155 L 961.5 166 L 976 177 Q 974.9 179.7 977.5 179 L 979 182 L 982 183.5 Q 981.3 185.8 983.5 185 L 985 185.5 L 987 174.5 L 995 152.5 L 1015 112.5 L 1021.5 104 Q 1023.8 104.8 1023 102.5 L 1028 95.5 L 1036 75.5 L 1037 70.5 L 1037 52.5 Q 1035.3 44.7 1030.5 40 Q 1028.3 40.8 1029 38.5 L 1026 37 L 1024.5 34 L 1015.5 29 L 999.5 24 L 968.5 22 L 967.5 23 L 940.5 24 L 935.5 26 L 929.5 26 L 911.5 30 L 886.5 38 L 858.5 52 L 856 52 Q 857.3 55 853.5 54 L 839 63 Q 840.1 65.7 837.5 65 L 819 80.5 Q 819.8 82.8 817.5 82 L 805 96.5 L 803 101 Q 800.3 99.9 801 102.5 L 784 129.5 L 783 134.5 L 776 148.5 L 772 161.5 L 772 165.5 L 770 168.5 L 769 178.5 L 767 182.5 L 766 196.5 L 764 202.5 L 763 243.5 L 764 244.5 L 764 261.5 L 766 268.5 L 766 276.5 L 769 289.5 L 770 301.5 L 772 305.5 L 776 325.5 L 783 344.5 L 789 372.5 L 789 381.5 L 790 382.5 L 790 418.5 L 789 419.5 L 789 427.5 Q 786.2 430.2 787 436.5 L 783 449.5 Q 777.3 463.8 766.5 473 L 762 475 Q 763.1 477.7 760.5 477 L 747.5 483 Q 742.8 481.7 741.5 484 L 723.5 484 L 696.5 477 L 689.5 473 L 686.5 473 L 674.5 467 L 669.5 466 L 655 457.5 L 655.5 455 L 668.5 455 Q 670.3 457.7 676.5 456 L 700.5 463 L 715.5 464 L 723.5 466 L 734.5 466 L 750.5 463 L 764 455 L 769 445.5 L 770 436.5 L 772 431.5 L 772 422.5 L 773 421.5 L 773 392.5 L 772 391.5 L 772 381.5 L 770 376.5 L 769 363.5 L 767 359.5 L 766 348.5 L 764 345.5 L 764 340.5 L 759 323.5 L 758 313.5 L 756 309.5 L 755 297.5 L 753 292.5 L 753 286.5 L 751 280.5 L 750 258.5 L 748 248.5 L 748 212.5 L 750 203.5 L 751 183.5 L 753 179.5 L 753 173.5 L 755 169.5 L 759 149.5 L 767 127.5 L 784 96 Q 786.7 97.1 786 94.5 L 792 85 Q 794.7 86.1 794 83.5 L 806 69 L 822 57 Q 820.9 54.3 823.5 55 L 837 46 Q 835.9 43.3 838.5 44 L 842 43 Q 840.8 40 844.5 41 L 863.5 30 L 902.5 16 L 911.5 15 L 921.5 12 L 927.5 12 L 931.5 10 L 964.5 8 L 965.5 7 Z M 902 161 L 893 163 L 886 163 L 862 169 L 843 177 L 825 188 Q 822 187 823 190 L 821 191 Q 818 190 819 193 L 817 194 Q 814 193 815 196 L 813 197 L 798 213 L 795 214 L 790 223 L 790 225 L 806 225 L 814 227 L 823 227 L 827 229 L 839 230 L 843 232 L 848 232 L 857 235 L 866 236 L 870 238 L 879 239 L 883 241 L 888 241 L 892 243 L 906 244 L 912 246 L 943 246 Q 949 243 959 243 L 978 236 L 981 231 L 982 215 L 983 214 L 981 199 L 975 190 Q 976 187 973 188 L 972 185 Q 969 186 970 183 L 954 172 L 939 166 L 931 165 L 928 163 L 913 162 L 912 161 L 902 161 Z M 119 219 L 119 244 L 120 245 L 121 261 L 123 267 L 124 279 L 126 283 L 127 293 L 130 301 L 130 305 L 132 308 L 133 316 L 140 335 L 141 342 L 143 345 L 144 352 L 146 354 L 146 358 L 151 370 L 152 376 L 154 378 L 160 394 L 162 395 L 162 368 L 161 367 L 161 356 L 160 355 L 160 339 L 158 331 L 157 312 L 155 308 L 154 295 L 152 291 L 149 275 L 147 272 L 146 265 L 140 248 L 129 226 L 125 221 L 125 219 L 119 219 Z " /><path fill="rgb(28,28,26)" stroke="rgb(28,28,26)" stroke-width="1" opacity="1" d="M 889.5 526 L 897 528 Q 898.6 530.1 898 535.5 L 895.5 539 L 890.5 541 L 887.5 539 L 877.5 545 L 840.5 561 Q 839.8 558.3 835.5 559 L 789.5 580 L 780 583 Q 778.8 580 782.5 581 L 800.5 572 L 807.5 570 L 815.5 565 L 818.5 565 L 822.5 562 L 834.5 558 L 837 555.5 L 838.5 552 L 864.5 541 L 870.5 537 L 875.5 536 L 879.5 533 L 884 533 Q 883.3 528.3 887.5 527 L 889.5 526 Z M 891 530 L 888 533 L 889 535 L 889 536 L 893 536 L 894 533 L 891 530 Z " /><path fill="rgb(28,28,26)" stroke="rgb(28,28,26)" stroke-width="1" opacity="1" d="M 526 573 L 547.5 580 L 580.5 583 L 581.5 582 L 621.5 580 L 628.5 578 L 638.5 578 L 646.5 576 L 679.5 575 L 680.5 576 L 693.5 576 L 697.5 578 L 702.5 578 L 709.5 580 L 749.5 595 L 758.5 600 L 764 601 Q 762.9 603.7 765.5 603 L 772 609.5 L 775 615.5 L 776 629.5 Q 774.8 636.3 770.5 640 L 763.5 640 L 748.5 629 L 688.5 601 L 666.5 597 L 620.5 597 L 619.5 598 L 594.5 598 L 593.5 597 L 581.5 597 L 576.5 595 L 566.5 594 L 546.5 587 L 528 578 L 526 573 Z " /><path fill="rgb(28,28,26)" stroke="rgb(28,28,26)" stroke-width="1" opacity="1" d="M 629 631 L 642.5 634 L 645.5 636 L 668.5 643 L 670.5 645 L 673.5 645 Q 676.5 648 682.5 648 L 684.5 650 L 688.5 650 L 695.5 653 L 705.5 654 L 709.5 656 L 729.5 656 Q 738 652.3 751 654 L 750 662 Q 747.3 660.9 748 663.5 L 742 668 L 740.5 671 L 731.5 676 Q 725.4 675.4 722.5 678 L 711.5 678 L 686.5 672 L 669.5 664 L 660.5 658 L 658 658 Q 659.1 655.3 656.5 656 L 647 650 Q 648.1 647.3 645.5 648 L 641 645 Q 642.1 642.3 639.5 643 L 638 640 L 629 632.5 L 629 631 Z " /><path fill="rgb(28,28,26)" stroke="rgb(28,28,26)" stroke-width="1" opacity="1" d="M 771.5 1431 Q 782.4 1432.6 787 1440.5 L 789 1443.5 L 794 1452.5 L 798 1469.5 L 798 1508.5 L 797 1509.5 L 797 1518.5 L 795 1523.5 L 795 1529.5 L 792 1539.5 L 792 1544.5 L 790 1547.5 L 789 1557.5 L 787 1560.5 L 786 1568.5 L 784 1571.5 L 780 1588.5 L 766 1627.5 L 762 1634.5 L 756 1652.5 L 751 1661.5 L 750 1667 Q 747.3 1668.1 748 1665.5 L 750 1662.5 L 751 1654.5 L 755 1644.5 L 762 1618.5 L 762 1614.5 L 766 1605.5 L 767 1597.5 L 769 1594.5 L 770 1586.5 L 772 1583.5 L 773 1575.5 L 776 1568.5 L 776 1563.5 L 780 1550.5 L 781 1537.5 L 783 1532.5 L 785 1497.5 L 786 1494.5 L 785 1493.5 L 785 1481.5 L 784 1480.5 L 783 1467.5 L 780 1457.5 L 775 1448 L 772 1446.5 L 770.5 1444 L 767.5 1442 L 759 1437.5 L 762 1436 Q 760.9 1433.3 763.5 1434 L 771.5 1431 Z " /><path fill="rgb(28,28,26)" stroke="rgb(28,28,26)" stroke-width="1" opacity="1" d="M 867.5 1978 Q 876.1 1976.9 878 1982.5 Q 880 1992 874.5 1994 Q 873.1 1996.6 868.5 1996 L 862 1993 L 861 1983.5 L 864.5 1979 L 867.5 1978 Z " /><path fill="rgb(28,28,26)" stroke="rgb(28,28,26)" stroke-width="1" opacity="1" d="M 853.5 2007 Q 859.1 2006.9 861 2010.5 L 862 2017.5 L 859.5 2021 L 854.5 2023 L 848 2018.5 L 847 2014.5 L 848 2010 Q 851 2011 850 2008 L 852.5 2008 L 853.5 2007 Z " /><path fill="rgb(28,28,26)" stroke="rgb(28,28,26)" stroke-width="1" opacity="1" d="M 839.5 2032 Q 846 2031 847 2035.5 Q 847.8 2041.3 843.5 2042 L 837 2041 L 836 2037.5 L 837 2033 L 839.5 2032 Z " /></svg>