<svg width="64" height="64" version="1.1" xmlns="http://www.w3.org/2000/svg" desc="Created with imagetracer.js version 1.2.6" ><path fill="rgb(0,0,0)" stroke="rgb(0,0,0)" stroke-width="1" opacity="0.00392156862745098" d="M 27.5 19 L 26.5 21 L 27.5 19 Z " /><path fill="rgb(0,0,0)" stroke="rgb(0,0,0)" stroke-width="1" opacity="0.00392156862745098" d="M 36.5 19 L 37.5 21 L 36.5 19 Z " /><path fill="rgb(0,0,0)" stroke="rgb(0,0,0)" stroke-width="1" opacity="0.00392156862745098" d="M 31.5 20 L 34 21.5 L 32.5 21 L 30.5 22 L 31.5 20 Z " /><path fill="rgb(0,0,0)" stroke="rgb(0,0,0)" stroke-width="1" opacity="0.00392156862745098" d="M 34.5 23 L 35.5 25 L 34.5 23 Z " /><path fill="rgb(0,0,0)" stroke="rgb(0,0,0)" stroke-width="1" opacity="0.00392156862745098" d="M 48.5 23 L 49.5 25 L 48.5 23 Z " /><path fill="rgb(0,0,0)" stroke="rgb(0,0,0)" stroke-width="1" opacity="0.00392156862745098" d="M 19.5 28 L 20.5 30 L 19.5 28 Z " /><path fill="rgb(0,0,0)" stroke="rgb(0,0,0)" stroke-width="1" opacity="0.00392156862745098" d="M 43.5 29 L 42.5 31 L 43.5 29 Z " /><path fill="rgb(0,0,0)" stroke="rgb(0,0,0)" stroke-width="1" opacity="0.00392156862745098" d="M 51.5 32 L 52 35.5 L 51 35.5 L 51.5 32 Z " /><path fill="rgb(0,0,0)" stroke="rgb(0,0,0)" stroke-width="1" opacity="0.00392156862745098" d="M 6.5 35 L 11 35.5 L 5.5 37 L 6.5 35 Z " /><path fill="rgb(0,0,0)" stroke="rgb(0,0,0)" stroke-width="1" opacity="0.00392156862745098" d="M 53.5 35 Q 58 34 59 36.5 L 58.5 41 L 58 36 L 53.5 36 L 53.5 35 Z " /><path fill="rgb(0,0,0)" stroke="rgb(0,0,0)" stroke-width="1" opacity="0.00392156862745098" d="M 17.5 37 L 19 39.5 L 18 39.5 L 17.5 37 Z " /><path fill="rgb(0,0,0)" stroke="rgb(0,0,0)" stroke-width="1" opacity="0.00392156862745098" d="M 5.5 38 L 6 40.5 L 5 40.5 L 5.5 38 Z " /><path fill="rgb(0,0,0)" stroke="rgb(0,0,0)" stroke-width="1" opacity="0.00392156862745098" d="M 24.5 38 L 25 40.5 L 24 40.5 L 24.5 38 Z " /><path fill="rgb(0,0,0)" stroke="rgb(0,0,0)" stroke-width="1" opacity="0.00392156862745098" d="M 52.5 39 L 55 40.5 L 54.5 42 L 54 40 L 52.5 39 Z " /><path fill="rgb(0,0,0)" stroke="rgb(0,0,0)" stroke-width="1" opacity="0.00392156862745098" d="M 46.5 44 L 47 46 L 50 46.5 L 47.5 47 L 46.5 44 Z " /><path fill="rgb(0,0,0)" stroke="rgb(0,0,0)" stroke-width="1" opacity="0.00392156862745098" d="M 50.5 50 L 49.5 52 L 50.5 50 Z " /><path fill="rgb(0,0,0)" stroke="rgb(0,0,0)" stroke-width="1" opacity="0.00392156862745098" d="M 11.5 54 L 14.5 58 L 11.5 54 Z " /><path fill="rgb(0,0,0)" stroke="rgb(0,0,0)" stroke-width="1" opacity="0.00392156862745098" d="M 35.5 54 L 34.5 56 L 35.5 54 Z " /><path fill="rgb(0,0,0)" stroke="rgb(0,0,0)" stroke-width="1" opacity="0.00392156862745098" d="M 52.5 54 L 49.5 58 L 52.5 54 Z " /><path fill="rgb(0,0,0)" stroke="rgb(0,0,0)" stroke-width="1" opacity="0.00392156862745098" d="M 18.5 55 L 19.5 57 L 18.5 55 Z " /><path fill="rgb(0,0,0)" stroke="rgb(0,0,0)" stroke-width="1" opacity="0.00392156862745098" d="M 45.5 55 L 44.5 57 L 45.5 55 Z " /><path fill="rgb(0,0,0)" stroke="rgb(0,0,0)" stroke-width="1" opacity="0.00392156862745098" d="M 33.5 57 L 31.5 60 L 33.5 57 Z " /><path fill="rgb(0,0,0)" stroke="rgb(0,0,0)" stroke-width="1" opacity="0.00392156862745098" d="M 37.5 58 L 38 60 L 36 59.5 L 37.5 58 Z " /><path fill="rgb(0,0,0)" stroke="rgb(0,0,0)" stroke-width="1" opacity="0.00392156862745098" d="M 17.5 59 L 18.5 61 L 17.5 59 Z " /><path fill="rgb(0,0,0)" stroke="rgb(0,0,0)" stroke-width="1" opacity="0" d="M 0 0 L 64 0 L 64 64 L 38 63.5 L 43.5 62 L 53 54.5 Q 59.1 48.6 59 36.5 Q 58 34 53.5 35 L 52 35.5 L 51 27.5 L 48.5 23 L 40 26 L 34 15 L 30 15 L 30 16.5 Q 25 19.8 24 26 L 15 23 Q 12.4 26.2 13 33.5 Q 14.3 36.3 15.5 34 Q 18.9 34.9 17 29.5 Q 18.8 26.3 20.5 30 Q 22.8 29.3 22 31.5 L 21 32.5 L 21 46.5 L 25 57 Q 30.2 59.1 29 54.5 Q 23.2 47.8 25 33.5 L 29 23.5 L 31.5 21 L 34 22.5 L 39 33.5 L 39 45.5 Q 36.9 54.9 30.5 60 Q 19.4 58.6 14 51.5 L 9 39.5 L 10.5 40 L 17.5 41 L 19 38.5 Q 14.7 34.8 6.5 35 Q 4 36 5 40.5 Q 7.2 51.8 14.5 58 Q 18.7 62.3 26 63.5 L 0 64 L 0 0 Z " /><path fill="rgb(0,0,0)" stroke="rgb(0,0,0)" stroke-width="1" opacity="0" d="M 46.5 28 L 48 38.5 L 46 45.5 L 50 47 L 51 40 L 54.5 39 L 54 40.5 Q 53.1 50.6 46.5 55 L 38 59 L 43 46.5 L 43 32.5 Q 40.3 30.8 44.5 29 L 46.5 28 Z " /><path fill="rgb(0,0,0)" stroke="rgb(0,0,0)" stroke-width="1" opacity="0.8274509803921568" d="M 31.5 19 L 34 20.5 L 32.5 20 L 30.5 21 L 31.5 19 Z " /><path fill="rgb(0,0,0)" stroke="rgb(0,0,0)" stroke-width="1" opacity="0.8274509803921568" d="M 42.5 29 L 42 30.5 L 41.5 32 L 41 30.5 L 42.5 29 Z " /><path fill="rgb(0,0,0)" stroke="rgb(0,0,0)" stroke-width="1" opacity="0.8274509803921568" d="M 48.5 33 L 49 38.5 L 48 38.5 L 48.5 33 Z " /><path fill="rgb(0,0,0)" stroke="rgb(0,0,0)" stroke-width="1" opacity="0.8274509803921568" d="M 21.5 36 L 22 42.5 L 21 42.5 L 21.5 36 Z " /><path fill="rgb(0,0,0)" stroke="rgb(0,0,0)" stroke-width="1" opacity="0.8274509803921568" d="M 42.5 36 L 43 42.5 L 42 42.5 L 42.5 36 Z " /><path fill="rgb(0,0,0)" stroke="rgb(0,0,0)" stroke-width="1" opacity="0.8274509803921568" d="M 9.5 38 L 8.5 40 L 9.5 38 Z " /><path fill="rgb(0,0,0)" stroke="rgb(0,0,0)" stroke-width="1" opacity="0.8274509803921568" d="M 54.5 38 L 55.5 40 L 54.5 38 Z " /><path fill="rgb(0,0,0)" stroke="rgb(0,0,0)" stroke-width="1" opacity="0.8274509803921568" d="M 51.5 50 L 50.5 52 L 51.5 50 Z " /><path fill="rgb(0,0,0)" stroke="rgb(0,0,0)" stroke-width="1" opacity="0.8274509803921568" d="M 12.5 54 L 15.5 58 L 12.5 54 Z " /><path fill="rgb(0,0,0)" stroke="rgb(0,0,0)" stroke-width="1" opacity="0.8274509803921568" d="M 51.5 54 L 49.5 57 L 51.5 54 Z " /><path fill="rgb(0,0,0)" stroke="rgb(0,0,0)" stroke-width="1" opacity="0.8274509803921568" d="M 25.5 55 L 26.5 57 L 25.5 55 Z " /><path fill="rgb(0,0,0)" stroke="rgb(0,0,0)" stroke-width="1" opacity="0.8274509803921568" d="M 33.5 58 L 31.5 61 L 33.5 58 Z " /><path fill="rgb(0,0,0)" stroke="rgb(0,0,0)" stroke-width="1" opacity="0.9764705882352941" d="M 35.5 59 L 36.5 61 Q 33.7 61.7 35.5 59 Z " /><path fill="rgb(0,0,0)" stroke="rgb(0,0,0)" stroke-width="1" opacity="0.4549019607843137" d="M 31.5 15 L 36 18.5 L 32.5 16 L 28.5 19 L 31.5 15 Z " /><path fill="rgb(0,0,0)" stroke="rgb(0,0,0)" stroke-width="1" opacity="0.4549019607843137" d="M 16.5 23 L 18 23.5 L 15.5 25 L 16.5 23 Z " /><path fill="rgb(0,0,0)" stroke="rgb(0,0,0)" stroke-width="1" opacity="0.4549019607843137" d="M 21.5 29 L 22.5 31 L 21.5 29 Z " /><path fill="rgb(0,0,0)" stroke="rgb(0,0,0)" stroke-width="1" opacity="0.4549019607843137" d="M 16.5 30 L 17 32.5 L 16 32.5 L 16.5 30 Z " /><path fill="rgb(0,0,0)" stroke="rgb(0,0,0)" stroke-width="1" opacity="0.4549019607843137" d="M 21.5 33 L 22 35.5 L 21 35.5 L 21.5 33 Z " /><path fill="rgb(0,0,0)" stroke="rgb(0,0,0)" stroke-width="1" opacity="0.4549019607843137" d="M 24.5 34 L 25 37.5 L 24 37.5 L 24.5 34 Z " /><path fill="rgb(0,0,0)" stroke="rgb(0,0,0)" stroke-width="1" opacity="0.4549019607843137" d="M 39.5 34 L 40 38.5 L 39 38.5 L 39.5 34 Z " /><path fill="rgb(0,0,0)" stroke="rgb(0,0,0)" stroke-width="1" opacity="0.4549019607843137" d="M 15.5 40 L 18 40.5 L 15.5 41 L 15.5 40 Z " /><path fill="rgb(0,0,0)" stroke="rgb(0,0,0)" stroke-width="1" opacity="0.4549019607843137" d="M 39.5 40 L 40 43.5 L 39 43.5 L 39.5 40 Z " /><path fill="rgb(0,0,0)" stroke="rgb(0,0,0)" stroke-width="1" opacity="0.4549019607843137" d="M 24.5 41 L 25 44.5 L 24 44.5 L 24.5 41 Z " /><path fill="rgb(0,0,0)" stroke="rgb(0,0,0)" stroke-width="1" opacity="0.4549019607843137" d="M 21.5 43 L 22 45.5 L 21 45.5 L 21.5 43 Z " /><path fill="rgb(0,0,0)" stroke="rgb(0,0,0)" stroke-width="1" opacity="0.4549019607843137" d="M 42.5 43 L 43 45.5 L 42 45.5 L 42.5 43 Z " /><path fill="rgb(0,0,0)" stroke="rgb(0,0,0)" stroke-width="1" opacity="0.4549019607843137" d="M 11.5 48 L 12.5 50 L 11.5 48 Z " /><path fill="rgb(0,0,0)" stroke="rgb(0,0,0)" stroke-width="1" opacity="0.4549019607843137" d="M 13.5 51 L 17.5 56 L 13.5 51 Z " /><path fill="rgb(0,0,0)" stroke="rgb(0,0,0)" stroke-width="1" opacity="0.4549019607843137" d="M 10.5 52 L 11.5 54 L 10.5 52 Z " /><path fill="rgb(0,0,0)" stroke="rgb(0,0,0)" stroke-width="1" opacity="0.4549019607843137" d="M 49.5 52 L 46.5 56 L 49.5 52 Z " /><path fill="rgb(0,0,0)" stroke="rgb(0,0,0)" stroke-width="1" opacity="0.4549019607843137" d="M 53.5 52 L 52.5 54 L 53.5 52 Z " /><path fill="rgb(0,0,0)" stroke="rgb(0,0,0)" stroke-width="1" opacity="0.4549019607843137" d="M 28.5 55 L 27.5 57 L 28.5 55 Z " /><path fill="rgb(0,0,0)" stroke="rgb(0,0,0)" stroke-width="1" opacity="0.4549019607843137" d="M 48.5 57 L 47.5 59 L 48.5 57 Z " /><path fill="rgb(0,0,0)" stroke="rgb(0,0,0)" stroke-width="1" opacity="0.4549019607843137" d="M 28.5 63 L 36 63.5 L 28.5 64 L 28.5 63 Z " /><path fill="rgb(1,0,0)" stroke="rgb(1,0,0)" stroke-width="1" opacity="0.996078431372549" d="M 50.5 37 L 51.5 39 L 50.5 37 Z " /><path fill="rgb(0,0,0)" stroke="rgb(0,0,0)" stroke-width="1" opacity="0.996078431372549" d="M 14.5 53 L 15.5 55 L 14.5 53 Z " /><path fill="rgb(0,0,0)" stroke="rgb(0,0,0)" stroke-width="1" opacity="0.996078431372549" d="M 49.5 53 L 48.5 55 L 49.5 53 Z " /><path fill="rgb(0,0,0)" stroke="rgb(0,0,0)" stroke-width="1" opacity="1" d="M 31.5 16 L 35 18.5 L 40 26.5 L 39.5 28 L 47.5 24 L 50 28.5 L 51 37 L 56.5 36 L 58 39.5 Q 55.6 51.6 47.5 58 L 44.5 60 L 43 59.5 Q 43.8 62.1 40.5 61 Q 36.5 64.5 27.5 63 Q 16.6 60.4 11 52.5 Q 6.4 47.1 6 37.5 L 9.5 36 L 17 38 Q 18.1 40.7 15.5 40 L 8.5 37 L 8 40.5 Q 9.6 49.9 15.5 55 Q 20.5 61 31.5 61 Q 37.9 55.9 40 46.5 L 40 32.5 Q 38.1 23.9 32.5 19 L 29 21.5 L 23 34.5 L 24 35.5 L 24 46.5 L 26 50.5 Q 23.5 52 27 53.5 L 28 55.5 L 26.5 56 Q 20.2 48.8 22 33.5 L 23 29 L 18.5 26 Q 15.2 28 16 33 Q 12.7 34.3 14 29.5 L 16 25.5 Q 15.3 23.3 17.5 24 L 23.5 28 L 31.5 16 Z M 44 27 L 41 31 L 42 34 L 41 50 L 35 61 Q 43 60 49 55 Q 54 50 56 41 Q 57 37 54 38 L 52 38 L 50 40 L 49 46 L 47 45 L 49 40 Q 51 33 48 32 Q 50 26 46 27 L 44 27 Z " /></svg>