<?xml version="1.0" encoding="UTF-8"?>
<svg version="1.1" xmlns="http://www.w3.org/2000/svg" width="355" height="531">
<path d="M0 0 C-1 2 -1 2 -3.62597656 2.91040039 C-4.78581055 3.21969482 -5.94564453 3.52898926 -7.140625 3.84765625 C-8.442411 4.2038928 -9.7439981 4.56085681 -11.04541016 4.91845703 C-11.73177551 5.10458557 -12.41814087 5.29071411 -13.12530518 5.48248291 C-26.94320153 9.25460865 -40.08301718 13.73676877 -53 20 C-53.62986816 20.30115723 -54.25973633 20.60231445 -54.90869141 20.91259766 C-92.83777861 39.30595163 -114.39703111 73.30583331 -130 111 C-130.38978027 111.92844727 -130.77956055 112.85689453 -131.18115234 113.81347656 C-131.73150146 115.14717285 -131.73150146 115.14717285 -132.29296875 116.5078125 C-132.62192139 117.30074707 -132.95087402 118.09368164 -133.28979492 118.91064453 C-134.16091567 121.10560488 -134.16091567 121.10560488 -134 124 C-134.66 124 -135.32 124 -136 124 C-135.67 124.66 -135.34 125.32 -135 126 C-132.03 125.01 -129.06 124.02 -126 123 C-126 123.99 -126 124.98 -126 126 C-125.278125 126.061875 -124.55625 126.12375 -123.8125 126.1875 C-119.44825986 127.44828048 -117.15688812 130.08475043 -114.83203125 133.93359375 C-110.04322092 143.0790113 -109.54972384 153.10942663 -112.5 163 C-118.19880855 178.13131925 -131.00864575 191.54046295 -144 201 C-144.66 201 -145.32 201 -146 201 C-146 201.66 -146 202.32 -146 203 C-148 204.33333333 -150 205.66666667 -152 207 C-154.15426622 208.93883959 -154.88109036 210.21901324 -155.31640625 213.078125 C-155.52469793 217.13645327 -155.39255714 219.37732316 -153.1875 222.875 C-152.465625 223.57625 -151.74375 224.2775 -151 225 C-148.45895725 227.54104275 -146.15020158 230.10834959 -144 233 C-144 233.66 -144 234.32 -144 235 C-142.68 235.66 -141.36 236.32 -140 237 C-140.33 237.99 -140.66 238.98 -141 240 C-144.73554859 238.75481714 -146.22621061 236.77378939 -149 234 C-150.95082205 232.56448944 -152.94639121 231.28947529 -155 230 C-162.86678244 245.73356487 -160.12576298 263.24955336 -155.83984375 279.5859375 C-155 283 -155 283 -155 286 C-154.34 286.33 -153.68 286.66 -153 287 C-152.26626397 289.25670074 -151.6668392 291.44539196 -151.125 293.75 C-150.95500488 294.45592285 -150.78500977 295.1618457 -150.60986328 295.88916016 C-147.66929213 308.38321225 -145.19525935 320.89636522 -144.0625 333.6875 C-143.23053243 342.41227485 -141.19217624 349.26437056 -134.75 355.4375 C-126.67370229 361.54228178 -117.82953892 361.65698718 -108 361 C-104.9254644 360.2236068 -104.9254644 360.2236068 -103 358 C-102.01 358.33 -101.02 358.66 -100 359 C-97.25392224 358.91232913 -94.54908492 358.77043265 -91.8125 358.5625 C-91.06291016 358.51029297 -90.31332031 358.45808594 -89.54101562 358.40429688 C-87.69362918 358.27486216 -85.84675629 358.13813482 -84 358 C-84 357.01 -84 356.02 -84 355 C-83.4225 355.185625 -82.845 355.37125 -82.25 355.5625 C-79.71209295 356.05598193 -78.4810219 355.62799385 -76 355 C-74.33407604 354.8545106 -72.66550782 354.73822851 -70.99609375 354.640625 C-61.93142495 353.93204007 -53.01344686 352.30076183 -44.0625 350.75 C-43.14992432 350.59282501 -42.23734863 350.43565002 -41.29711914 350.27371216 C-18.65847102 346.36016896 3.5724496 342.18445549 24.125 331.5 C24.81174805 331.14454102 25.49849609 330.78908203 26.20605469 330.42285156 C30.4692049 328.1102443 33.99676769 325.45731254 37.55029297 322.15429688 C39 321 39 321 41 321 C41 320.34 41 319.68 41 319 C42.39910472 317.87389132 43.79905563 316.74881873 45.203125 315.62890625 C49.31762711 311.89902064 53.23665304 307.29004088 55 302 C55.66 302 56.32 302 57 302 C53.76301656 317.82525237 41.65327478 330.06674217 28.66796875 338.74609375 C9.51388665 350.89913341 -18.4337375 357.39589934 -41 357 C-41.33 357.66 -41.66 358.32 -42 359 C-42.99 358.67 -43.98 358.34 -45 358 C-47.03590706 358.10724739 -49.0680512 358.29329859 -51.09375 358.5234375 C-52.28871094 358.6575 -53.48367187 358.7915625 -54.71484375 358.9296875 C-55.96394531 359.07664062 -57.21304688 359.22359375 -58.5 359.375 C-60.37365234 359.58382812 -60.37365234 359.58382812 -62.28515625 359.796875 C-68.73643883 360.45229866 -68.73643883 360.45229866 -75 362 C-76.66666667 362 -78.33333333 362 -80 362 C-81.34332728 362.29044914 -82.68225804 362.60955794 -84 363 C-84 362.34 -84 361.68 -84 361 C-87.3 361.66 -90.6 362.32 -94 363 C-92.39125 363.350625 -90.7825 363.70125 -89.125 364.0625 C-88.22007813 364.25972656 -87.31515625 364.45695312 -86.3828125 364.66015625 C-83.98985875 365.23202157 -83.98985875 365.23202157 -82 364 C-79.375 364.9375 -79.375 364.9375 -77 366 C-77.33 366.66 -77.66 367.32 -78 368 C-77.11699219 368.40089844 -76.23398438 368.80179687 -75.32421875 369.21484375 C-64.91143276 374.09046395 -56.19260443 379.84315018 -49 389 C-48.35675781 389.62261719 -47.71351563 390.24523437 -47.05078125 390.88671875 C-30.23174552 408.21833462 -22.70902301 434.51588018 -17.27490234 457.33959961 C-16.61751972 460.0938402 -15.94063514 462.84279383 -15.26171875 465.59179688 C-14.83218394 467.36430519 -14.40375705 469.13708245 -13.9765625 470.91015625 C-13.77664703 471.72065933 -13.57673157 472.53116241 -13.37075806 473.3662262 C-12.27187453 478.03710845 -11.79781661 482.20154074 -12 487 C-14.6133224 484.3866776 -14.96236532 482.1813629 -15.953125 478.62109375 C-16.32550527 477.30256722 -16.69790173 475.98404526 -17.0703125 474.66552734 C-17.26270508 473.97497253 -17.45509766 473.28441772 -17.65332031 472.57293701 C-18.6508828 469.00279394 -19.67602698 465.44064686 -20.703125 461.87890625 C-20.90401733 461.18212769 -21.10490967 460.48534912 -21.31188965 459.76745605 C-25.68968228 444.66032784 -31.66006183 430.38026725 -38 416 C-38.66 416 -39.32 416 -40 416 C-40.12761719 414.96552734 -40.12761719 414.96552734 -40.2578125 413.91015625 C-41.17523168 410.31290736 -42.86599669 407.50956527 -44.875 404.4375 C-45.27428711 403.82688721 -45.67357422 403.21627441 -46.08496094 402.5871582 C-59.14769765 383.15671503 -77.63699807 371.24476571 -100.6796875 366.44140625 C-103.56288599 366.05811045 -106.40085866 365.80691855 -109.30078125 365.60546875 C-110.27853516 365.53650391 -111.25628906 365.46753906 -112.26367188 365.39648438 C-114.28378971 365.25801377 -116.30467374 365.13027157 -118.32617188 365.01367188 C-126.76550012 364.38751029 -133.998796 362.3871758 -140.375 356.5625 C-141.00148438 356.00691406 -141.62796875 355.45132812 -142.2734375 354.87890625 C-149.14828999 347.39744913 -149.65406211 336.71293519 -150.97216797 327.04125977 C-152.52827095 315.70760585 -155.20624185 304.87591928 -158.22705078 293.8515625 C-159.47500323 289.24761916 -160.64911111 284.62591753 -161.8125 280 C-162.0192334 279.19369141 -162.2259668 278.38738281 -162.43896484 277.55664062 C-166.26509335 262.35510063 -168.47381417 241.32523695 -160.39453125 227.19140625 C-159.93433594 226.46824219 -159.47414062 225.74507812 -159 225 C-159.66 224.01 -160.32 223.02 -161 222 C-161 221.01 -161 220.02 -161 219 C-161.66 218.67 -162.32 218.34 -163 218 C-161.38702874 206.07250198 -161.38702874 206.07250198 -157 201 C-156.34 201 -155.68 201 -155 201 C-154.67 200.01 -154.34 199.02 -154 198 C-154.88751953 197.65388672 -154.88751953 197.65388672 -155.79296875 197.30078125 C-160.78530129 195.24032426 -164.59428102 193.36357744 -168 189 C-168.8125 186.1875 -168.8125 186.1875 -169 184 C-167.68 184.66 -166.36 185.32 -165 186 C-165 186.99 -165 187.98 -165 189 C-160.38 189 -155.76 189 -151 189 C-150.77102171 186.0578058 -150.77102171 186.0578058 -152.0625 183.9375 C-154.15754957 177.37301134 -152.37727848 170.14310149 -149.44140625 164.0546875 C-146.83131938 160.33407586 -143.16750702 157.76524239 -139 156 C-138.01 156.33 -137.02 156.66 -136 157 C-136.7425 157.721875 -137.485 158.44375 -138.25 159.1875 C-143.35433027 164.40783778 -146.6649926 168.50576032 -147 176 C-146.31385627 178.93922564 -145.30161748 181.24657842 -144 184 C-138.66562398 183.73978654 -136.21908016 181.82231772 -132.515625 178.27734375 C-131 177 -131 177 -129 177 C-128.73058594 176.42765625 -128.46117187 175.8553125 -128.18359375 175.265625 C-126.96865312 172.93999607 -125.57615924 170.89146193 -124.0625 168.75 C-118.74700551 160.81565212 -116.01615947 152.63472306 -117.6875 143.0625 C-118.72664885 139.99364131 -118.72664885 139.99364131 -120.8125 138.5 C-123.49733593 137.88632322 -125.36764441 138.26879012 -128 139 C-128.33 138.34 -128.66 137.68 -129 137 C-131.95084812 136.56816857 -134.15159915 136.54022147 -136.81640625 137.984375 C-142.09927865 142.0463676 -143.93519366 146.82515262 -146 153 C-146.65744409 154.67032616 -147.32160231 156.33807377 -148 158 C-148.66 158 -149.32 158 -150 158 C-149.07480471 146.06912336 -147.01748803 135.29164151 -143 124 C-142.20797159 121.72017773 -141.41633921 119.44021784 -140.625 117.16015625 C-139.75189538 114.66860583 -138.87688055 112.17772402 -138 109.6875 C-137.37738281 107.91656982 -137.37738281 107.91656982 -136.7421875 106.10986328 C-134.45510747 99.7152091 -131.98152225 93.52521367 -129.015625 87.41333008 C-127.90666828 85.0085294 -127.90666828 85.0085294 -127.47802734 82.31738281 C-126.83822922 79.21576699 -125.28192171 78.13346956 -123 76 C-122.07646659 74.55063977 -121.2029293 73.06851863 -120.375 71.5625 C-99.3672657 35.74431301 -63.82161506 14.52503079 -24.3828125 4.23046875 C-22.13203547 3.66712809 -19.87943316 3.11102628 -17.625 2.5625 C-16.02881836 2.17360596 -16.02881836 2.17360596 -14.40039062 1.77685547 C-9.52916049 0.64174338 -5.03972876 -0.35503244 0 0 Z " fill="#F19153" transform="translate(177,18)"/>
<path d="M0 0 C0.495 1.485 0.495 1.485 1 3 C-0.29296875 5.15625 -0.29296875 5.15625 -2.1875 7.5 C-2.79980469 8.2734375 -3.41210938 9.046875 -4.04296875 9.84375 C-6 12 -6 12 -8.23828125 13.65625 C-8.81964844 14.0996875 -9.40101563 14.543125 -10 15 C-10 15.66 -10 16.32 -10 17 C-5.38492226 18.04214691 -5.38492226 18.04214691 -1 17 C-0.505 18.485 -0.505 18.485 0 20 C-2.14422374 22.14422374 -6.41248027 22.01108743 -9.375 22.5 C-10.92483252 22.75830542 -12.47432786 23.01864409 -14.0234375 23.28125 C-14.71356934 23.39533203 -15.40370117 23.50941406 -16.11474609 23.62695312 C-18.21315694 24.00101807 -18.21315694 24.00101807 -21 25 C-21 25.66 -21 26.32 -21 27 C-20.01 27 -19.02 27 -18 27 C-18 27.99 -18 28.98 -18 30 C-17.34 30.33 -16.68 30.66 -16 31 C-16.66 31 -17.32 31 -18 31 C-18.33 31.66 -18.66 32.32 -19 33 C-19.67546875 32.89300781 -20.3509375 32.78601563 -21.046875 32.67578125 C-21.93890625 32.55589844 -22.8309375 32.43601563 -23.75 32.3125 C-24.63171875 32.18488281 -25.5134375 32.05726563 -26.421875 31.92578125 C-29.59838682 32.01722629 -30.77509707 32.77509707 -33 35 C-33.33425735 37.62625139 -33.33425735 37.62625139 -33 40 C-34.485 40.495 -34.485 40.495 -36 41 C-36.4125 40.566875 -36.825 40.13375 -37.25 39.6875 C-39.06054505 37.94161728 -40.96474232 36.47380729 -43 35 C-43.99 36.98 -44.98 38.96 -46 41 C-46.99 41 -47.98 41 -49 41 C-49 39.35 -49 37.7 -49 36 C-49.598125 36.66 -50.19625 37.32 -50.8125 38 C-53 40 -53 40 -56 40 C-56.99 40.495 -56.99 40.495 -58 41 C-58.0825 40.21625 -58.165 39.4325 -58.25 38.625 C-58.7669159 35.95422429 -58.7669159 35.95422429 -60.625 34.5 C-64.30813797 33.72460253 -66.7312091 35.36560455 -70 37 C-69.67 35.02 -69.34 33.04 -69 31 C-70.65 31.33 -72.3 31.66 -74 32 C-74.33 31.34 -74.66 30.68 -75 30 C-77.2466696 29.25595418 -79.52402838 28.60334576 -81.8125 28 C-89.54746438 25.94803018 -89.54746438 25.94803018 -93 24 C-93.33 24.66 -93.66 25.32 -94 26 C-98 21.25 -98 21.25 -98 19 C-96.02 19.33 -94.04 19.66 -92 20 C-92 19.34 -92 18.68 -92 18 C-90.76866333 18.00785522 -90.76866333 18.00785522 -89.51245117 18.01586914 C-86.41300729 18.03309918 -83.31358813 18.04554042 -80.21411133 18.05493164 C-78.23452108 18.0623244 -76.25495299 18.07504274 -74.27539062 18.08789062 C-67.60827633 18.1047694 -61.06477 17.93854063 -54.43334961 17.24291992 C-51.52269771 16.95235118 -48.6217302 16.82544926 -45.69995117 16.71020508 C-27.99534271 15.96061047 -13.65138264 11.65193771 0 0 Z M-25 25 C-23.515 25.99 -23.515 25.99 -22 27 C-22 26.34 -22 25.68 -22 25 C-22.99 25 -23.98 25 -25 25 Z M-60 30 C-60.33 30.66 -60.66 31.32 -61 32 C-60.34 32 -59.68 32 -59 32 C-59.33 31.34 -59.66 30.68 -60 30 Z M-52 32 C-52 32.99 -52 33.98 -52 35 C-51.34 35 -50.68 35 -50 35 C-50.33 34.01 -50.66 33.02 -51 32 C-51.33 32 -51.66 32 -52 32 Z M-36 33 C-35 35 -35 35 -35 35 Z " fill="#F29253" transform="translate(191,170)"/>
<path d="M0 0 C1.44681152 0.00628418 1.44681152 0.00628418 2.92285156 0.01269531 C10.01607373 0.12505845 16.41521186 0.89614662 23.125 3.3125 C23.98996094 3.60253906 24.85492188 3.89257812 25.74609375 4.19140625 C40.6002143 9.59496 52.9141622 20.98434428 61.125 34.3125 C60.135 35.3025 60.135 35.3025 59.125 36.3125 C58.55652344 35.66023438 57.98804688 35.00796875 57.40234375 34.3359375 C45.68440818 21.07256469 32.33659022 10.97679448 14.125 9.3125 C-6.76435937 8.41933347 -26.7504448 15.89721081 -44.25390625 26.89453125 C-48.29562772 29.08103631 -50.74736383 29.63164231 -55.1875 28.375 C-56.5178125 27.8490625 -56.5178125 27.8490625 -57.875 27.3125 C-58.85726685 23.79271044 -59.26013378 22.03024931 -57.5 18.75 C-53.99981241 15.49982581 -50.12396814 13.44606306 -45.875 11.3125 C-45.875 10.6525 -45.875 9.9925 -45.875 9.3125 C-44.67617187 9.15587891 -44.67617187 9.15587891 -43.453125 8.99609375 C-38.21762695 7.99586213 -33.26530059 6.25438699 -28.21484375 4.57226562 C-18.78084063 1.50126138 -9.93502427 -0.05928235 0 0 Z " fill="#F39254" transform="translate(146.875,115.6875)"/>
<path d="M0 0 C0.66 0.33 1.32 0.66 2 1 C1.90126587 1.87229248 1.90126587 1.87229248 1.80053711 2.76220703 C-2.66626907 43.56622202 4.59390091 80.46224759 30.11108398 113.34277344 C37.56547955 122.88369607 37.56547955 122.88369607 47 130 C47 130.66 47 131.32 47 132 C47.54011719 132.25007812 48.08023438 132.50015625 48.63671875 132.7578125 C51.51251961 134.26939047 54.12645401 136.04752327 56.8125 137.875 C61.12517067 140.77826667 65.43744814 143.51133535 70 146 C69.67 146.99 69.34 147.98 69 149 C36.02547354 130.30906019 9.1844723 107.53960908 -2 70 C-7.96891763 47.8197808 -9.73271837 22.77918919 -1 1 C-0.67 0.67 -0.34 0.34 0 0 Z " fill="#F19254" transform="translate(255,317)"/>
<path d="M0 0 C7.61886015 4.03760913 14.9978875 7.10403078 23.72070312 7.08203125 C25.25017578 7.08589844 25.25017578 7.08589844 26.81054688 7.08984375 C29.57909038 6.96615061 32.08859847 6.58229863 34.78320312 5.95703125 C29.01037662 12.4295943 23.13711629 14.22423185 14.78320312 14.95703125 C14.78320312 14.29703125 14.78320312 13.63703125 14.78320312 12.95703125 C13.94088135 13.24102783 13.94088135 13.24102783 13.08154297 13.53076172 C10.30626206 14.04548877 8.70038861 13.59779093 6.00976562 12.77734375 C5.10226563 12.50792969 4.19476563 12.23851562 3.25976562 11.9609375 C1.84824219 11.52587891 1.84824219 11.52587891 0.40820312 11.08203125 C-11.09395609 7.60278696 -21.26179869 5.82221015 -33.21679688 7.95703125 C-33.54679687 8.61703125 -33.87679687 9.27703125 -34.21679688 9.95703125 C-36.72070312 10.80859375 -36.72070312 10.80859375 -39.77929688 11.58203125 C-40.79121094 11.84242188 -41.803125 12.1028125 -42.84570312 12.37109375 C-43.62816406 12.56445312 -44.410625 12.7578125 -45.21679688 12.95703125 C-47.29631452 8.05235219 -48.17259509 4.46600157 -46.21679688 -0.66796875 C-42.77269723 -4.75783708 -38.33334691 -6.51383124 -33.21679688 -7.79296875 C-20.77133711 -8.8300904 -10.92796766 -5.79496994 0 0 Z " fill="#F39254" transform="translate(78.216796875,286.04296875)"/>
<path d="M0 0 C0.66 0.33 1.32 0.66 2 1 C2.94030384 3.87515982 3.7553941 6.69825782 4.5 9.625 C4.83100708 10.91519043 4.83100708 10.91519043 5.16870117 12.23144531 C10.23414333 32.59886191 13.07869463 59.01563494 2 78 C-2.46338409 84.14992998 -7.46430541 89.92165007 -15 92 C-18.66594977 92.55913027 -22.29540947 92.86380182 -26 93 C-26 93.66 -26 94.32 -26 95 C-26.66 95 -27.32 95 -28 95 C-28.33 94.34 -28.66 93.68 -29 93 C-31.52733235 92.34444881 -31.52733235 92.34444881 -34 92 C-34 91.01 -34 90.02 -34 89 C-32.02 89.33 -30.04 89.66 -28 90 C-28 89.34 -28 88.68 -28 88 C-26.700625 87.95875 -25.40125 87.9175 -24.0625 87.875 C-17.42956873 87.10324385 -12.60626625 83.98272693 -8.2421875 78.98828125 C0.50234318 66.75033253 2.35333498 52.47776086 2.26074219 37.82495117 C2.25011046 35.83319445 2.2616578 33.84135964 2.2734375 31.84960938 C2.25424889 22.13537364 1.88524474 12.08579351 -0.62792969 2.63989258 C-0.75071289 2.09872803 -0.87349609 1.55756348 -1 1 C-0.67 0.67 -0.34 0.34 0 0 Z " fill="#EF9153" transform="translate(273,221)"/>
<path d="M0 0 C2 3 2 3 2 6 C1.49549316 6.26216309 0.99098633 6.52432617 0.47119141 6.79443359 C-1.81290489 7.98409997 -4.09396567 9.17947397 -6.375 10.375 C-7.1690625 10.7875 -7.963125 11.2 -8.78125 11.625 C-9.92207031 12.22441406 -9.92207031 12.22441406 -11.0859375 12.8359375 C-11.7876709 13.20251465 -12.4894043 13.5690918 -13.21240234 13.94677734 C-15.16163413 14.99478038 -15.16163413 14.99478038 -17 17 C-19.54755164 18.30118436 -22.08210781 19.51519098 -24.6875 20.6875 C-25.38294922 21.02072266 -26.07839844 21.35394531 -26.79492188 21.69726562 C-31.76109178 23.92763699 -34.55535611 23.80502071 -40 23 C-42.75575893 23.92144795 -45.10815135 24.85933137 -47.6875 26.125 C-49.1050466 26.78346167 -50.52301896 27.44100748 -51.94140625 28.09765625 C-52.63250488 28.4239502 -53.32360352 28.75024414 -54.03564453 29.08642578 C-56.70004401 30.32557354 -59.40589253 31.44930835 -62.125 32.5625 C-65.3564903 33.89415809 -68.57704069 35.24482759 -71.78125 36.640625 C-72.42046387 36.9183374 -73.05967773 37.1960498 -73.71826172 37.48217773 C-75.5347063 38.27318004 -77.34943108 39.06812819 -79.1640625 39.86328125 C-82 41 -82 41 -84 41 C-84.33 41.99 -84.66 42.98 -85 44 C-89 44 -89 44 -92 42 C-88.42260572 40.23767409 -84.83706679 38.49254295 -81.25 36.75 C-79.75533203 36.01330078 -79.75533203 36.01330078 -78.23046875 35.26171875 C-72.17238674 32.33038874 -66.15972313 29.97142698 -59.75 27.9296875 C-55.94552391 26.64351518 -52.43143397 24.97669703 -48.875 23.125 C-48.19179688 22.77695313 -47.50859375 22.42890625 -46.8046875 22.0703125 C-42.30913917 19.75442396 -37.98563172 17.2309575 -33.6875 14.56640625 C-28.23659113 11.38935035 -22.52414878 8.69941321 -16.86083984 5.92529297 C-13.57553338 4.29169136 -10.34161188 2.55568386 -7.11328125 0.8125 C-4.54759649 -0.17393702 -2.7245523 -0.36146631 0 0 Z " fill="#EFA857" transform="translate(309,127)"/>
<path d="M0 0 C-1 2 -1 2 -3.62597656 2.91040039 C-4.78581055 3.21969482 -5.94564453 3.52898926 -7.140625 3.84765625 C-8.442411 4.2038928 -9.7439981 4.56085681 -11.04541016 4.91845703 C-11.73177551 5.10458557 -12.41814087 5.29071411 -13.12530518 5.48248291 C-26.94320153 9.25460865 -40.08301718 13.73676877 -53 20 C-53.62986816 20.30115723 -54.25973633 20.60231445 -54.90869141 20.91259766 C-65.46048082 26.02958866 -74.67034602 32.9742459 -84 40 C-84 39.34 -84 38.68 -84 38 C-85.65 38.99 -87.3 39.98 -89 41 C-87.99686938 38.76224708 -87.15523165 37.1492612 -85.375 35.4375 C-83.65438868 33.97021721 -83.65438868 33.97021721 -84 31 C-81.7175399 29.2704912 -79.50526195 27.78520902 -77.0625 26.3125 C-76.34030273 25.87188232 -75.61810547 25.43126465 -74.87402344 24.97729492 C-57.01307089 14.29351348 -37.7916596 7.46925124 -17.625 2.5625 C-16.02881836 2.17360596 -16.02881836 2.17360596 -14.40039062 1.77685547 C-9.52916049 0.64174338 -5.03972876 -0.35503244 0 0 Z " fill="#EC8F52" transform="translate(177,18)"/>
<path d="M0 0 C3.26623282 2.73194165 4.89826072 6.3186065 6.75 10.0625 C7.059375 10.66126953 7.36875 11.26003906 7.6875 11.87695312 C14.64697738 25.80971638 19.23798065 40.37271569 22.80053711 55.49047852 C23.44695185 58.22752093 24.11570884 60.95844343 24.78710938 63.68945312 C25.21223842 65.45281187 25.63611454 67.21647326 26.05859375 68.98046875 C26.25537216 69.78469772 26.45215057 70.5889267 26.65489197 71.41752625 C27.73862484 76.0683327 28.19733922 80.22454972 28 85 C25.3866776 82.3866776 25.03763468 80.1813629 24.046875 76.62109375 C23.67449473 75.30256722 23.30209827 73.98404526 22.9296875 72.66552734 C22.73729492 71.97497253 22.54490234 71.28441772 22.34667969 70.57293701 C21.3491172 67.00279394 20.32397302 63.44064686 19.296875 59.87890625 C19.09598267 59.18212769 18.89509033 58.48534912 18.68811035 57.76745605 C14.31031772 42.66032784 8.33993817 28.38026725 2 14 C1.34 14 0.68 14 0 14 C-1.33257403 4.58997722 -1.33257403 4.58997722 0 0 Z " fill="#EE8F52" transform="translate(137,420)"/>
<path d="M0 0 C0.495 0.99 0.495 0.99 1 2 C2.89533342 2.46523063 2.89533342 2.46523063 5.0625 2.625 C6.361875 2.74875 7.66125 2.8725 9 3 C8 5 8 5 6.0625 5.6875 C4 6 4 6 2 5 C1.67 5.66 1.34 6.32 1 7 C-1.046875 7.23828125 -1.046875 7.23828125 -3.75 7.3125 C-15.7359144 8.25957355 -25.69499603 13.36438281 -34 22 C-37.07242945 26.12381045 -39.70111602 30.40223204 -42 35 C-42.99 34.67 -43.98 34.34 -45 34 C-43.46523771 27.57396277 -42.1412619 23.42387652 -37 19 C-36.07182975 17.863465 -35.1559155 16.71685216 -34.25 15.5625 C-27.0542674 7.02107196 -17.57806191 4.20830674 -7 2 C-4.58620595 1.7988505 -2.42157686 1.83489249 0 2 C0 1.34 0 0.68 0 0 Z " fill="#EF9152" transform="translate(145,152)"/>
<path d="M0 0 C1.0209375 0.433125 1.0209375 0.433125 2.0625 0.875 C8.41877124 3.30931665 13.94447898 4.33091047 20.6875 4.25 C21.8619165 4.24419922 21.8619165 4.24419922 23.06005859 4.23828125 C29.50044215 4.14320075 35.70305235 3.38285909 42 2 C41 5 41 5 38.4453125 6.53515625 C30.44411084 10.21570901 22.89230515 13 14 13 C12.1875 12.1875 12.1875 12.1875 10 11 C9.01 10.5875 8.02 10.175 7 9.75 C3.431706 7.66849517 1.98324819 5.5851025 0 2 C0 1.34 0 0.68 0 0 Z " fill="#F39455" transform="translate(34,309)"/>
<path d="M0 0 C0.47308594 0.39832031 0.94617187 0.79664063 1.43359375 1.20703125 C10.77614783 8.69200148 19.11572561 9.79432168 31 9 C34.0745356 8.2236068 34.0745356 8.2236068 36 6 C36.99 6.33 37.98 6.66 39 7 C41.80837365 6.99154104 44.60094868 6.87038675 47.40625 6.7421875 C50 7 50 7 51.84375 8.5078125 C52.2253125 9.00023437 52.606875 9.49265625 53 10 C50.36 10.33 47.72 10.66 45 11 C46.32 11.66 47.64 12.32 49 13 C48.01 13.33 47.02 13.66 46 14 C48.475 14.99 48.475 14.99 51 16 C47.42570525 17.19143158 46.3229289 16.69537165 42.75 15.6875 C35.32955021 13.83238755 27.93920375 13.30444047 20.31152344 12.91088867 C10.83157712 12.28661137 3.97088147 9.43465982 -3 3 C-2.01 2.67 -1.02 2.34 0 2 C0 1.34 0 0.68 0 0 Z " fill="#EA8F52" transform="translate(38,370)"/>
<path d="M0 0 C5.29648805 2.37428775 9.13061675 8.42207564 12.8125 12.8125 C11.8225 13.3075 11.8225 13.3075 10.8125 13.8125 C8.95703125 13.140625 8.95703125 13.140625 6.625 12.0625 C-0.08754681 9.22371368 -7.04723492 8.06918665 -14.1875 6.8125 C-14.1875 2.8125 -14.1875 2.8125 -12.6875 1.0625 C-8.53399899 -1.01425051 -4.51552153 -0.3870447 0 0 Z " fill="#EE9053" transform="translate(57.1875,241.1875)"/>
<path d="M0 0 C0.495 0.99 0.495 0.99 1 2 C0.34 2 -0.32 2 -1 2 C-1 2.99 -1 3.98 -1 5 C-9.2932277 8.65196702 -17.59006527 12.2816203 -25.96875 15.734375 C-28.24830043 16.68614606 -30.51675768 17.65418116 -32.78125 18.640625 C-33.42046387 18.9183374 -34.05967773 19.1960498 -34.71826172 19.48217773 C-36.5347063 20.27318004 -38.34943108 21.06812819 -40.1640625 21.86328125 C-43 23 -43 23 -45 23 C-45.33 23.99 -45.66 24.98 -46 26 C-50 26 -50 26 -53 24 C-49.42260572 22.23767409 -45.83706679 20.49254295 -42.25 18.75 C-41.25355469 18.25886719 -40.25710937 17.76773438 -39.23046875 17.26171875 C-33.18272753 14.33539235 -27.18428565 11.98746162 -20.78515625 9.95166016 C-16.78866401 8.58609855 -13.10689105 6.77413504 -9.375 4.8125 C-8.68277344 4.45736328 -7.99054688 4.10222656 -7.27734375 3.73632812 C-5.51474189 2.8309761 -3.75697386 1.91622622 -2 1 C-1.34 0.67 -0.68 0.34 0 0 Z " fill="#E89A51" transform="translate(270,145)"/>
<path d="M0 0 C3.65141356 1.5255906 5.90118112 3.72480909 8.625 6.5625 C11.51070681 9.69042054 11.51070681 9.69042054 15 12 C15 12.66 15 13.32 15 14 C15.81017578 14.37511719 15.81017578 14.37511719 16.63671875 14.7578125 C19.51251961 16.26939047 22.12645401 18.04752327 24.8125 19.875 C29.12517067 22.77826667 33.43744814 25.51133535 38 28 C37.505 29.485 37.505 29.485 37 31 C24.75273717 24.01145821 12.84274605 17.06289906 2 8 C2.66 7.67 3.32 7.34 4 7 C4 6.34 4 5.68 4 5 C2.68 4.34 1.36 3.68 0 3 C0 2.01 0 1.02 0 0 Z " fill="#E38A4E" transform="translate(287,435)"/>
<path d="M0 0 C-1 2 -1 2 -3.84814453 3.00561523 C-5.09708496 3.35309814 -6.34602539 3.70058105 -7.6328125 4.05859375 C-8.63790359 4.34332298 -8.63790359 4.34332298 -9.66329956 4.63380432 C-11.81517371 5.24253209 -13.96976944 5.84077414 -16.125 6.4375 C-18.25847414 7.03171456 -20.39119045 7.62830314 -22.52243042 8.23048401 C-24.4719069 8.7808142 -26.4236441 9.32311741 -28.37548828 9.86499023 C-31.01459726 10.69142279 -33.29276229 11.55286133 -35.77685547 12.69946289 C-39 14 -39 14 -42 13 C-43.34090759 12.34870203 -44.67592331 11.68486725 -46 11 C-36.78567879 7.61392424 -27.47539342 5.00143911 -17.9375 2.6875 C-16.8554126 2.42114746 -15.7733252 2.15479492 -14.65844727 1.88037109 C-13.62518311 1.63496582 -12.59191895 1.38956055 -11.52734375 1.13671875 C-10.60687256 0.91717529 -9.68640137 0.69763184 -8.73803711 0.47143555 C-5.7782062 -0.03818848 -2.99764725 -0.08022766 0 0 Z " fill="#E58E51" transform="translate(177,18)"/>
<path d="M0 0 C3.64239319 4.85652425 4.12479927 8.03945893 4.1328125 13.94921875 C4.13410156 14.88056641 4.13539063 15.81191406 4.13671875 16.77148438 C4.13285156 17.73376953 4.12898438 18.69605469 4.125 19.6875 C4.12886719 20.63044922 4.13273437 21.57339844 4.13671875 22.54492188 C4.12818402 28.75393555 3.73829183 34.83551544 3 41 C2.67 41 2.34 41 2 41 C1.67 39.35 1.34 37.7 1 36 C0.67 36 0.34 36 0 36 C0 24.12 0 12.24 0 0 Z " fill="#F59756" transform="translate(277,237)"/>
<path d="M0 0 C0.54527344 0.16757812 1.09054688 0.33515625 1.65234375 0.5078125 C5.25285001 1.26266073 8.78295119 0.9109629 12.44140625 0.7421875 C15 1 15 1 16.83984375 2.5078125 C17.22269531 3.00023437 17.60554688 3.49265625 18 4 C15.36 4.33 12.72 4.66 10 5 C11.32 5.66 12.64 6.32 14 7 C13.01 7.33 12.02 7.66 11 8 C12.65 8.66 14.3 9.32 16 10 C12.19068824 11.26977059 10.18381007 10.52074507 6.3125 9.5625 C5.13300781 9.27503906 3.95351562 8.98757813 2.73828125 8.69140625 C1.83464844 8.46324219 0.93101563 8.23507812 0 8 C0.99 7.34 1.98 6.68 3 6 C-3.27 5.67 -9.54 5.34 -16 5 C-16 4.67 -16 4.34 -16 4 C-15.16855469 3.93941406 -14.33710937 3.87882812 -13.48046875 3.81640625 C-12.39378906 3.73261719 -11.30710937 3.64882813 -10.1875 3.5625 C-8.56908203 3.44068359 -8.56908203 3.44068359 -6.91796875 3.31640625 C-3.94010095 3.09787539 -3.94010095 3.09787539 -1 2 C-0.67 1.34 -0.34 0.68 0 0 Z " fill="#E0864B" transform="translate(73,376)"/>
<path d="M0 0 C2 1 2 1 3.10546875 4.0546875 C3.46253906 5.31539062 3.81960938 6.57609375 4.1875 7.875 C4.55230469 9.13054687 4.91710937 10.38609375 5.29296875 11.6796875 C6 15 6 15 5 18 C4.8470353 20.51054905 4.74304822 22.99888525 4.68359375 25.51171875 C4.66281265 26.23994339 4.64203156 26.96816803 4.62062073 27.71846008 C4.55531254 30.04137875 4.49632763 32.36440906 4.4375 34.6875 C4.39429695 36.26368335 4.35068208 37.83985548 4.30664062 39.41601562 C4.1996504 43.27722975 4.09833039 47.13855603 4 51 C3.67 51 3.34 51 3 51 C2.98018066 50.13947021 2.96036133 49.27894043 2.93994141 48.39233398 C2.86065234 45.12111224 2.77394338 41.85024557 2.68261719 38.5793457 C2.64493015 37.17837796 2.60998732 35.77733302 2.578125 34.3762207 C2.21606255 18.36076089 2.21606255 18.36076089 -0.62646484 2.64233398 C-0.74973145 2.10036377 -0.87299805 1.55839355 -1 1 C-0.67 0.67 -0.34 0.34 0 0 Z " fill="#E38C4F" transform="translate(273,221)"/>
<path d="M0 0 C0.99 0.33 1.98 0.66 3 1 C-3.40866678 6.03199021 -8.91021124 8.12297617 -17 9 C-15.125 5.125 -15.125 5.125 -14 4 C-14.99 3.01 -15.98 2.02 -17 1 C-15.41058594 1.01740234 -15.41058594 1.01740234 -13.7890625 1.03515625 C-12.40104342 1.04453476 -11.01302245 1.05363489 -9.625 1.0625 C-8.57699219 1.07506836 -8.57699219 1.07506836 -7.5078125 1.08789062 C-3.62704624 1.1835442 -3.62704624 1.1835442 0 0 Z " fill="#EA8D51" transform="translate(110,292)"/>
<path d="M0 0 C2.45690791 4.55304309 3.44023191 9.30823246 4.625 14.3125 C4.85445312 15.23740234 5.08390625 16.16230469 5.3203125 17.11523438 C6.53719017 22.21090962 7.27453705 26.76212198 7 32 C3.29183535 28.29183535 2.68437741 22.51940375 1.3125 17.5625 C0.97927734 16.40427734 0.64605469 15.24605469 0.30273438 14.05273438 C-0.00728516 12.94349609 -0.31730469 11.83425781 -0.63671875 10.69140625 C-1.06537231 9.16302124 -1.06537231 9.16302124 -1.50268555 7.60375977 C-2.10270606 4.46226798 -1.40801884 2.81603768 0 0 Z " fill="#DF864D" transform="translate(158,473)"/>
<path d="M0 0 C0.33 0 0.66 0 1 0 C1.33 5.61 1.66 11.22 2 17 C2.99 16.34 3.98 15.68 5 15 C5.66 20.94 6.32 26.88 7 33 C5.22293791 30.33440687 4.12451727 27.9719385 3 25 C2.34 26.32 1.68 27.64 1 29 C-0.09857724 22.8323971 -0.11539104 16.81584877 -0.0625 10.5625 C-0.05798828 9.54478516 -0.05347656 8.52707031 -0.04882812 7.47851562 C-0.03712437 4.98561491 -0.02072848 2.49283926 0 0 Z " fill="#E78C51" transform="translate(12,260)"/>
<path d="M0 0 C0.33 0 0.66 0 1 0 C3.29612756 11.52164009 3.29612756 11.52164009 3 17 C2.01 16.34 1.02 15.68 0 15 C0 15.99 0 16.98 0 18 C0 21.33333333 0 24.66666667 0 28 C-0.33 28 -0.66 28 -1 28 C-1.53373082 24.75198175 -2.04971268 21.50138509 -2.5625 18.25 C-2.71396484 17.32960938 -2.86542969 16.40921875 -3.02148438 15.4609375 C-3.16005859 14.57148438 -3.29863281 13.68203125 -3.44140625 12.765625 C-3.57232666 11.94868164 -3.70324707 11.13173828 -3.83813477 10.29003906 C-4.00431883 7.93889793 -3.70259545 6.23573504 -3 4 C-2.34 4 -1.68 4 -1 4 C-0.67 2.68 -0.34 1.36 0 0 Z " fill="#E88D52" transform="translate(28,324)"/>
<path d="M0 0 C-1 2 -1 2 -2.65478516 2.7019043 C-4.97454956 3.37830323 -7.2959208 4.04379386 -9.625 4.6875 C-10.81802734 5.04424805 -10.81802734 5.04424805 -12.03515625 5.40820312 C-17.12968856 6.83450486 -20.82392356 7.14484264 -26 6 C-22.27037151 3.8549805 -18.26524134 2.90056437 -14.125 1.875 C-13.43019531 1.69324219 -12.73539063 1.51148437 -12.01953125 1.32421875 C-7.92148229 0.29777711 -4.25965752 -0.20029738 0 0 Z " fill="#D4834A" transform="translate(177,18)"/>
<path d="M0 0 C2.98923954 1.41346395 5.65443778 3.06174394 8.375 4.9375 C11.82477976 7.26966516 15.22260697 9.25658783 19 11 C18.67 11.99 18.34 12.98 18 14 C11.4 10.04 4.8 6.08 -2 2 C-1.34 1.34 -0.68 0.68 0 0 Z " fill="#C87843" transform="translate(306,452)"/>
<path d="M0 0 C2.375 -0.1875 2.375 -0.1875 5 0 C7 3 7 3 7 6 C5.54735962 6.8638129 4.0876837 7.71580454 2.625 8.5625 C1.40683594 9.27599609 1.40683594 9.27599609 0.1640625 10.00390625 C-0.55007813 10.33261719 -1.26421875 10.66132813 -2 11 C-2.66 10.67 -3.32 10.34 -4 10 C-3.45773019 6.20411134 -1.79872437 4.52788007 1 2 C0.67 1.34 0.34 0.68 0 0 Z " fill="#E39E4E" transform="translate(304,127)"/>
<path d="M0 0 C4.29 0.33 8.58 0.66 13 1 C9.71508627 3.18994248 8.16904361 3.35277339 4.3125 3.625 C3.31863281 3.69976562 2.32476562 3.77453125 1.30078125 3.8515625 C0.16189453 3.92503906 0.16189453 3.92503906 -1 4 C-0.34 4.66 0.32 5.32 1 6 C0.34 6 -0.32 6 -1 6 C-1.33 6.66 -1.66 7.32 -2 8 C-6 3.25 -6 3.25 -6 1 C-3.03 1.495 -3.03 1.495 0 2 C0 1.34 0 0.68 0 0 Z " fill="#E5894D" transform="translate(99,188)"/>
<path d="M0 0 C1.0209375 0.433125 1.0209375 0.433125 2.0625 0.875 C8.22892734 3.23661047 13.89555867 4.33770523 20.4375 4.625 C21.53481445 4.68300781 21.53481445 4.68300781 22.65429688 4.7421875 C24.43583532 4.83533984 26.21788122 4.91870286 28 5 C26 7 26 7 22.75 7.3125 C17.397321 7.20406636 12.26629157 5.86866917 7.07421875 4.65625 C4.03493093 3.89561738 4.03493093 3.89561738 1 4 C0.67 2.68 0.34 1.36 0 0 Z " fill="#E78B50" transform="translate(34,309)"/>
<path d="M0 0 C1.98 0.99 1.98 0.99 4 2 C4 2.99 4 3.98 4 5 C6.22909871 5.02714735 8.45829367 5.04646254 10.6875 5.0625 C11.92886719 5.07410156 13.17023437 5.08570313 14.44921875 5.09765625 C17.46235454 5.01478673 20.08275339 4.70839449 23 4 C23 4.66 23 5.32 23 6 C19.24600202 7.2039337 15.66782588 7.09877617 11.75 7.0625 C10.48671875 7.05347656 9.2234375 7.04445312 7.921875 7.03515625 C6.95765625 7.02355469 5.9934375 7.01195312 5 7 C4.67 7.66 4.34 8.32 4 9 C0 3.375 0 3.375 0 0 Z " fill="#E38A4F" transform="translate(8,202)"/>
<path d="M0 0 C2.61959624 2.61959624 2.28856227 4.54853793 2.32226562 8.12109375 C2.31743164 9.29865234 2.31743164 9.29865234 2.3125 10.5 C2.32861328 11.28503906 2.34472656 12.07007813 2.36132812 12.87890625 C2.36328125 15.15625 2.36328125 15.15625 2 19 C1.01 19.66 0.02 20.32 -1 21 C-1.0269501 18.06243881 -1.04681474 15.12512445 -1.0625 12.1875 C-1.07087891 11.35412109 -1.07925781 10.52074219 -1.08789062 9.66210938 C-1.09111328 8.85966797 -1.09433594 8.05722656 -1.09765625 7.23046875 C-1.10289307 6.49207764 -1.10812988 5.75368652 -1.11352539 4.99291992 C-1 3 -1 3 0 0 Z " fill="#F79858" transform="translate(14,257)"/>
<path d="M0 0 C-2 3 -2 3 -3.84765625 3.51171875 C-4.57855469 3.56972656 -5.30945313 3.62773437 -6.0625 3.6875 C-6.8565625 3.75195312 -7.650625 3.81640625 -8.46875 3.8828125 C-12.32011166 4.06111628 -16.14485667 4.06119275 -20 4 C-20 3.67 -20 3.34 -20 3 C-17.79344925 2.49219106 -15.58466395 1.99408635 -13.375 1.5 C-11.53035156 1.08234375 -11.53035156 1.08234375 -9.6484375 0.65625 C-6.32847772 0.05908379 -3.36091549 -0.12409534 0 0 Z " fill="#F89858" transform="translate(112,374)"/>
<path d="M0 0 C0.66 0 1.32 0 2 0 C0.7023817 5.29860806 -1.15015702 9.34525646 -4 14 C-4.33 13.01 -4.66 12.02 -5 11 C-5.99 11.495 -5.99 11.495 -7 12 C-5.880462 9.48103951 -4.68018448 7.60265345 -2.9375 5.4375 C-0.83615651 3.07973981 -0.83615651 3.07973981 0 0 Z " fill="#EC8F51" transform="translate(232,320)"/>
<path d="M0 0 C0.5775 0.185625 1.155 0.37125 1.75 0.5625 C3.95746031 1.15911352 3.95746031 1.15911352 5.9375 0.5 C8.5437064 -0.13180761 10.42673558 0.35668389 13 1 C7.15069491 4.24961394 1.5246233 4.12793379 -5 4 C-5 3.67 -5 3.34 -5 3 C-3.35 3 -1.7 3 0 3 C0 2.01 0 1.02 0 0 Z " fill="#E1864C" transform="translate(93,373)"/>
<path d="M0 0 C3.68006822 3.38168431 5.9785845 6.42521756 8 11 C7.01 11 6.02 11 5 11 C3.359375 9.35546875 3.359375 9.35546875 1.75 7.1875 C1.20859375 6.47980469 0.6671875 5.77210938 0.109375 5.04296875 C-0.25671875 4.36878906 -0.6228125 3.69460937 -1 3 C-0.67 2.01 -0.34 1.02 0 0 Z " fill="#E88F4F" transform="translate(200,140)"/>
<path d="M0 0 C0.33 0.66 0.66 1.32 1 2 C0.54625 2.7425 0.0925 3.485 -0.375 4.25 C-2.14887925 7.25194949 -2.54339822 9.57548664 -3 13 C-3.33 13.66 -3.66 14.32 -4 15 C-4.99 14.67 -5.98 14.34 -7 14 C-4.29384966 3.25740319 -4.29384966 3.25740319 0 0 Z " fill="#E88C4F" transform="translate(107,172)"/>
<path d="M0 0 C2.00841268 0.01421885 4.01537247 0.13420475 6.01953125 0.265625 C5.02953125 0.760625 5.02953125 0.760625 4.01953125 1.265625 C4.01953125 1.925625 4.01953125 2.585625 4.01953125 3.265625 C-0.41123798 5.35793269 -0.41123798 5.35793269 -3.29296875 4.890625 C-3.84984375 4.684375 -4.40671875 4.478125 -4.98046875 4.265625 C-3.72152968 1.74774686 -2.88459378 0.38688832 0 0 Z " fill="#F09555" transform="translate(130.98046875,29.734375)"/>
<path d="M0 0 C2.92987626 5.27377728 3.11710798 10.02749309 3 16 C0.51635743 13.51635743 0.41725183 11.98639569 -0.1875 8.5625 C-0.36667969 7.59441406 -0.54585937 6.62632812 -0.73046875 5.62890625 C-1 3 -1 3 0 0 Z " fill="#BA6F40" transform="translate(162,489)"/>
<path d="M0 0 C0 0.66 0 1.32 0 2 C-1.57914015 2.53341184 -3.16354387 3.05125763 -4.75 3.5625 C-5.63171875 3.85253906 -6.5134375 4.14257812 -7.421875 4.44140625 C-10.07834316 5.01697435 -11.47031106 4.89248371 -14 4 C-4.58997722 -0.59225513 -4.58997722 -0.59225513 0 0 Z " fill="#EA9556" transform="translate(155,24)"/>
<path d="M0 0 C-0.33 0.66 -0.66 1.32 -1 2 C-3.36328125 2.703125 -3.36328125 2.703125 -6.3125 3.25 C-7.27800781 3.44078125 -8.24351562 3.6315625 -9.23828125 3.828125 C-12.2189953 4.01362913 -13.51654056 3.58091955 -16 2 C-10.61972975 0.80911014 -5.54708616 -0.2919519 0 0 Z " fill="#B87241" transform="translate(177,18)"/>
<path d="M0 0 C0.33 0.66 0.66 1.32 1 2 C0.34 2 -0.32 2 -1 2 C-1 2.99 -1 3.98 -1 5 C-2.96466413 6.06775224 -4.96855359 7.06553465 -7 8 C-9 7 -9 7 -10 5 C-6.7 3.35 -3.4 1.7 0 0 Z " fill="#E59D4F" transform="translate(270,145)"/>
<path d="M0 0 C0 0.99 0 1.98 0 3 C-1.96466413 4.06775224 -3.96855359 5.06553465 -6 6 C-6.66 5.67 -7.32 5.34 -8 5 C-7.67 4.67 -7.34 4.34 -7 4 C-8.32 3.34 -9.64 2.68 -11 2 C-5.555 1.01 -5.555 1.01 0 0 Z " fill="#E48A4F" transform="translate(75,311)"/>
<path d="M0 0 C1.16306443 3.54950034 0.92365049 6.55823948 0.5625 10.25 C0.40974609 11.86648437 0.40974609 11.86648437 0.25390625 13.515625 C0.17011719 14.33546875 0.08632813 15.1553125 0 16 C-2.26960847 12.59558729 -2.16765738 11.88753927 -1.6875 8 C-1.58824219 7.13375 -1.48898438 6.2675 -1.38671875 5.375 C-1 3 -1 3 0 0 Z " fill="#E98D53" transform="translate(26,186)"/>
<path d="M0 0 C0.93972656 0.12568359 0.93972656 0.12568359 1.8984375 0.25390625 C3.12433594 0.40666016 3.12433594 0.40666016 4.375 0.5625 C5.59316406 0.71912109 5.59316406 0.71912109 6.8359375 0.87890625 C9.04899186 1.18237328 9.04899186 1.18237328 11 0 C11.33 0.99 11.66 1.98 12 3 C11 4 11 4 7.6875 4.125 C4.85351237 4.02893262 2.66404901 3.85249568 0 3 C0 2.01 0 1.02 0 0 Z " fill="#E68D50" transform="translate(179,187)"/>
<path d="M0 0 C0.33 0 0.66 0 1 0 C1 5.61 1 11.22 1 17 C0.01 17.33 -0.98 17.66 -2 18 C-1.34 12.06 -0.68 6.12 0 0 Z " fill="#E68B50" transform="translate(29,158)"/>
<path d="M0 0 C2.31 0 4.62 0 7 0 C6.3125 1.9375 6.3125 1.9375 5 4 C2.375 4.75 2.375 4.75 0 5 C-0.33 4.34 -0.66 3.68 -1 3 C-0.34 2.67 0.32 2.34 1 2 C0.67 1.34 0.34 0.68 0 0 Z " fill="#F39554" transform="translate(62,314)"/>
<path d="M0 0 C0.66 0.33 1.32 0.66 2 1 C2 1.66 2 2.32 2 3 C3.32 3.66 4.64 4.32 6 5 C5.67 5.99 5.34 6.98 5 8 C2 7 2 7 0.25 4.5625 C-0.1625 3.716875 -0.575 2.87125 -1 2 C-0.67 1.34 -0.34 0.68 0 0 Z " fill="#E68C51" transform="translate(31,250)"/>
<path d="M0 0 C1.79133978 -0.05391993 3.58313899 -0.09275571 5.375 -0.125 C6.37273438 -0.14820313 7.37046875 -0.17140625 8.3984375 -0.1953125 C11 0 11 0 13 2 C11.35 2.66 9.7 3.32 8 4 C7.67 3.34 7.34 2.68 7 2 C4.36 2 1.72 2 -1 2 C-0.67 1.34 -0.34 0.68 0 0 Z " fill="#E78B50" transform="translate(41,153)"/>
<path d="M0 0 C0.33 0.99 0.66 1.98 1 3 C1.99 3.33 2.98 3.66 4 4 C0.04 4 -3.92 4 -8 4 C-5.33440687 2.22293791 -2.9719385 1.12451727 0 0 Z " fill="#E98D51" transform="translate(50,141)"/>
<path d="M0 0 C2.03833424 1.2739589 4.03852126 2.61061923 6 4 C6 4.66 6 5.32 6 6 C3.625 5.75 3.625 5.75 1 5 C-0.3125 2.9375 -0.3125 2.9375 -1 1 C-0.67 0.67 -0.34 0.34 0 0 Z " fill="#ED9052" transform="translate(293,442)"/>
<path d="M0 0 C-2.64 0.99 -5.28 1.98 -8 3 C-7.67 3.66 -7.34 4.32 -7 5 C-7.99 5 -8.98 5 -10 5 C-10 4.34 -10 3.68 -10 3 C-10.99 2.67 -11.98 2.34 -13 2 C-11.5882217 1.46605821 -10.17029756 0.94834896 -8.75 0.4375 C-7.96109375 0.14746094 -7.1721875 -0.14257812 -6.359375 -0.44140625 C-4 -1 -4 -1 0 0 Z " fill="#D5834C" transform="translate(150,25)"/>
<path d="M0 0 C2 2 2 2 2.125 4.625 C2.08375 5.40875 2.0425 6.1925 2 7 C1.01 7.33 0.02 7.66 -1 8 C-1.625 5.125 -1.625 5.125 -2 2 C-1.34 1.34 -0.68 0.68 0 0 Z " fill="#F69858" transform="translate(26,322)"/>
<path d="M0 0 C1.98 0.66 3.96 1.32 6 2 C5.01 3.485 5.01 3.485 4 5 C1.97954558 4.39816251 -0.02111039 3.72693904 -2 3 C-2.33 2.34 -2.66 1.68 -3 1 C-2.01 1 -1.02 1 0 1 C0 0.67 0 0.34 0 0 Z " fill="#E0874F" transform="translate(43,375)"/>
<path d="M0 0 C0.33 0.66 0.66 1.32 1 2 C1.99 2 2.98 2 4 2 C3 5 3 5 2 7 C1.34 7 0.68 7 0 7 C0 4.69 0 2.38 0 0 Z " fill="#F59758" transform="translate(19,305)"/>
<path d="M0 0 C0.66 0.33 1.32 0.66 2 1 C2.93571406 3.88511836 3.2877684 5.36622435 2.015625 8.16796875 C1.68046875 8.77253906 1.3453125 9.37710938 1 10 C0.63883954 8.5225254 0.28624952 7.04295325 -0.0625 5.5625 C-0.25972656 4.73878906 -0.45695312 3.91507813 -0.66015625 3.06640625 C-0.82837891 2.04353516 -0.82837891 2.04353516 -1 1 C-0.67 0.67 -0.34 0.34 0 0 Z " fill="#DC8A4C" transform="translate(273,221)"/>
<path d="M0 0 C0.556875 0.28875 1.11375 0.5775 1.6875 0.875 C4.08494645 2.0413253 6.51596939 3.0339881 9 4 C9 4.33 9 4.66 9 5 C6.1875 5.3125 6.1875 5.3125 3 5 C1.125 2.5 1.125 2.5 0 0 Z " fill="#F69A5B" transform="translate(12,208)"/>
<path d="M0 0 C0.99 0.33 1.98 0.66 3 1 C1.7260411 3.03833424 0.38938077 5.03852126 -1 7 C-1.66 7 -2.32 7 -3 7 C-1.125 2.25 -1.125 2.25 0 0 Z " fill="#F99957" transform="translate(112,167)"/>
<path d="M0 0 C1 3 1 3 0 6 C-0.66 4.68 -1.32 3.36 -2 2 C-1.34 1.34 -0.68 0.68 0 0 Z " fill="#E4894F" transform="translate(50,127)"/>
<path d="M0 0 C0.99 0 1.98 0 3 0 C2.67 0.66 2.34 1.32 2 2 C1.34 2 0.68 2 0 2 C0 1.34 0 0.68 0 0 Z " fill="#DE854F" transform="translate(95,392)"/>
<path d="M0 0 C1.32 0.33 2.64 0.66 4 1 C3.01 1.495 3.01 1.495 2 2 C1.34 1.34 0.68 0.68 0 0 Z " fill="#E78B50" transform="translate(137,376)"/>
<path d="M0 0 C0.33 0.66 0.66 1.32 1 2 C1.66 2.33 2.32 2.66 3 3 C2.01 3 1.02 3 0 3 C0 2.01 0 1.02 0 0 Z " fill="#E38B54" transform="translate(22,249)"/>
<path d="M0 0 C0.99 0 1.98 0 3 0 C3 0.66 3 1.32 3 2 C2.01 1.67 1.02 1.34 0 1 C0 0.67 0 0.34 0 0 Z " fill="#E08851" transform="translate(48,250)"/>
<path d="M0 0 C0.66 0.66 1.32 1.32 2 2 C1.01 2 0.02 2 -1 2 C-0.67 1.34 -0.34 0.68 0 0 Z " fill="#CE7D49" transform="translate(94,45)"/>
<path d="M0 0 C4 1 4 1 4 1 Z " fill="#E38B50" transform="translate(144,212)"/>
<path d="M0 0 C0.66 0.33 1.32 0.66 2 1 C1.01 1 0.02 1 -1 1 C-0.67 0.67 -0.34 0.34 0 0 Z " fill="#EB9155" transform="translate(173,194)"/>
<path d="M0 0 C4 1 4 1 4 1 Z " fill="#E98D52" transform="translate(137,160)"/>
<path d="M0 0 C3 1 3 1 3 1 Z " fill="#D7804A" transform="translate(66,384)"/>
<path d="M0 0 C3 1 3 1 3 1 Z " fill="#E28850" transform="translate(98,380)"/>
<path d="M0 0 C3 1 3 1 3 1 Z " fill="#E68850" transform="translate(105,379)"/>
<path d="M0 0 C3 1 3 1 3 1 Z " fill="#E78B52" transform="translate(117,378)"/>
<path d="M0 0 C3 1 3 1 3 1 Z " fill="#E58C51" transform="translate(49,312)"/>
<path d="M0 0 C3 1 3 1 3 1 Z " fill="#E38A4F" transform="translate(71,310)"/>
<path d="M0 0 C0.99 0.495 0.99 0.495 2 1 C1.01 1.495 1.01 1.495 0 2 C0 1.34 0 0.68 0 0 Z " fill="#E58B52" transform="translate(49,299)"/>
<path d="" fill="#E38950" transform="translate(0,0)"/>
<path d="M0 0 C0.66 0.66 1.32 1.32 2 2 C1.34 2 0.68 2 0 2 C0 1.34 0 0.68 0 0 Z " fill="#E68E52" transform="translate(147,208)"/>
<path d="M0 0 C2 1 2 1 2 1 Z " fill="#734426" transform="translate(95,488)"/>
<path d="M0 0 C2 1 2 1 2 1 Z " fill="#86502E" transform="translate(95,472)"/>
<path d="" fill="#D8824B" transform="translate(0,0)"/>
<path d="M0 0 C2 1 2 1 2 1 Z " fill="#D5804D" transform="translate(144,451)"/>
<path d="" fill="#DB814B" transform="translate(0,0)"/>
<path d="M0 0 C2 1 2 1 2 1 Z " fill="#A9653A" transform="translate(95,440)"/>
<path d="M0 0 C2 1 2 1 2 1 Z " fill="#DD854D" transform="translate(99,396)"/>
<path d="" fill="#E98C51" transform="translate(0,0)"/>
<path d="M0 0 C2 1 2 1 2 1 Z " fill="#DB844E" transform="translate(49,376)"/>
<path d="" fill="#D9834C" transform="translate(0,0)"/>
<path d="M0 0 C2 1 2 1 2 1 Z " fill="#E4884F" transform="translate(121,369)"/>
<path d="" fill="#D8834E" transform="translate(0,0)"/>
<path d="" fill="#D78350" transform="translate(0,0)"/>
<path d="" fill="#D9864F" transform="translate(0,0)"/>
<path d="M0 0 C2 1 2 1 2 1 Z " fill="#D9814B" transform="translate(95,344)"/>
<path d="M0 0 C2 1 2 1 2 1 Z " fill="#D8834A" transform="translate(95,336)"/>
<path d="M0 0 C2 1 2 1 2 1 Z " fill="#DA834B" transform="translate(95,328)"/>
<path d="" fill="#E1884E" transform="translate(0,0)"/>
<path d="" fill="#E68D52" transform="translate(0,0)"/>
<path d="" fill="#E28A51" transform="translate(0,0)"/>
<path d="M0 0 C2 1 2 1 2 1 Z " fill="#E0884F" transform="translate(95,304)"/>
<path d="M0 0 C2 1 2 1 2 1 Z " fill="#E68B51" transform="translate(90,300)"/>
<path d="M0 0 C2 1 2 1 2 1 Z " fill="#E88C52" transform="translate(70,296)"/>
<path d="M0 0 C2 1 2 1 2 1 Z " fill="#E1874E" transform="translate(95,288)"/>
<path d="M0 0 C2 1 2 1 2 1 Z " fill="#D9844B" transform="translate(95,272)"/>
<path d="M0 0 C2 1 2 1 2 1 Z " fill="#E38C50" transform="translate(141,212)"/>
<path d="M0 0 C2 1 2 1 2 1 Z " fill="#E28950" transform="translate(49,211)"/>
<path d="" fill="#E38951" transform="translate(0,0)"/>
<path d="" fill="#E89153" transform="translate(0,0)"/>
<path d="" fill="#E48950" transform="translate(0,0)"/>
<path d="" fill="#DF874E" transform="translate(0,0)"/>
<path d="M0 0 C2 1 2 1 2 1 Z " fill="#E38C4F" transform="translate(188,184)"/>
<path d="M0 0 C2 1 2 1 2 1 Z " fill="#EC9052" transform="translate(158,184)"/>
<path d="M0 0 C2 1 2 1 2 1 Z " fill="#E58B4F" transform="translate(95,184)"/>
<path d="" fill="#D9844F" transform="translate(0,0)"/>
<path d="M0 0 C2 1 2 1 2 1 Z " fill="#E98D51" transform="translate(107,180)"/>
<path d="" fill="#E78D50" transform="translate(0,0)"/>
<path d="M0 0 C2 1 2 1 2 1 Z " fill="#E4894F" transform="translate(95,168)"/>
<path d="M0 0 C2 1 2 1 2 1 Z " fill="#E98D51" transform="translate(121,166)"/>
<path d="M0 0 C2 1 2 1 2 1 Z " fill="#DB8F4E" transform="translate(237,164)"/>
<path d="M0 0 C2 1 2 1 2 1 Z " fill="#E98C51" transform="translate(127,163)"/>
<path d="" fill="#EB8C50" transform="translate(0,0)"/>
<path d="M0 0 C2 1 2 1 2 1 Z " fill="#E5894F" transform="translate(95,160)"/>
<path d="" fill="#E98D51" transform="translate(0,0)"/>
<path d="" fill="#E78A4F" transform="translate(0,0)"/>
<path d="" fill="#E58951" transform="translate(0,0)"/>
<path d="M0 0 C2 1 2 1 2 1 Z " fill="#ED8E51" transform="translate(123,132)"/>
<path d="" fill="#E38A50" transform="translate(0,0)"/>
<path d="M0 0 C2 1 2 1 2 1 Z " fill="#E78D52" transform="translate(95,128)"/>
<path d="" fill="#E78B50" transform="translate(0,0)"/>
<path d="" fill="#E5884F" transform="translate(0,0)"/>
<path d="" fill="#DB844E" transform="translate(0,0)"/>
<path d="M0 0 C2 1 2 1 2 1 Z " fill="#DA824B" transform="translate(95,96)"/>
<path d="" fill="#D8834C" transform="translate(0,0)"/>
<path d="" fill="#D3804C" transform="translate(0,0)"/>
<path d="" fill="#9F643A" transform="translate(0,0)"/>
<path d="M0 0 C2 1 2 1 2 1 Z " fill="#DA834B" transform="translate(62,77)"/>
<path d="" fill="#D9824B" transform="translate(0,0)"/>
<path d="M0 0 C2 1 2 1 2 1 Z " fill="#D7824C" transform="translate(95,64)"/>
<path d="" fill="#D8814D" transform="translate(0,0)"/>
<path d="M0 0 C2 1 2 1 2 1 Z " fill="#D8814C" transform="translate(96,56)"/>
<path d="" fill="#492A17" transform="translate(0,0)"/>
<path d="" fill="#3D2612" transform="translate(0,0)"/>
<path d="" fill="#A6643D" transform="translate(0,0)"/>
<path d="" fill="#A5633A" transform="translate(0,0)"/>
<path d="" fill="#BB7040" transform="translate(0,0)"/>
<path d="" fill="#A16138" transform="translate(0,0)"/>
<path d="" fill="#D07E49" transform="translate(0,0)"/>
<path d="" fill="#8C5531" transform="translate(0,0)"/>
<path d="" fill="#4E311B" transform="translate(0,0)"/>
<path d="" fill="#AD693E" transform="translate(0,0)"/>
<path d="" fill="#D17C48" transform="translate(0,0)"/>
<path d="" fill="#925730" transform="translate(0,0)"/>
<path d="" fill="#B16B3D" transform="translate(0,0)"/>
<path d="" fill="#975833" transform="translate(0,0)"/>
<path d="" fill="#D07E48" transform="translate(0,0)"/>
<path d="" fill="#DD834C" transform="translate(0,0)"/>
<path d="" fill="#D8804C" transform="translate(0,0)"/>
<path d="" fill="#9F5F37" transform="translate(0,0)"/>
<path d="" fill="#A06138" transform="translate(0,0)"/>
<path d="" fill="#CC7C49" transform="translate(0,0)"/>
<path d="" fill="#CF7D49" transform="translate(0,0)"/>
<path d="" fill="#DA824B" transform="translate(0,0)"/>
<path d="" fill="#C37541" transform="translate(0,0)"/>
<path d="" fill="#CF7F4B" transform="translate(0,0)"/>
<path d="" fill="#DD844D" transform="translate(0,0)"/>
<path d="" fill="#DA874E" transform="translate(0,0)"/>
<path d="" fill="#B16B3E" transform="translate(0,0)"/>
<path d="" fill="#DE864E" transform="translate(0,0)"/>
<path d="" fill="#BA6F41" transform="translate(0,0)"/>
<path d="" fill="#E4884F" transform="translate(0,0)"/>
<path d="" fill="#C27744" transform="translate(0,0)"/>
<path d="" fill="#DE864E" transform="translate(0,0)"/>
<path d="" fill="#E0884F" transform="translate(0,0)"/>
<path d="" fill="#DF884F" transform="translate(0,0)"/>
<path d="" fill="#C67645" transform="translate(0,0)"/>
<path d="" fill="#E0874F" transform="translate(0,0)"/>
<path d="" fill="#DF874F" transform="translate(0,0)"/>
<path d="" fill="#E68A51" transform="translate(0,0)"/>
<path d="" fill="#E38750" transform="translate(0,0)"/>
<path d="" fill="#DF8751" transform="translate(0,0)"/>
<path d="" fill="#E2884F" transform="translate(0,0)"/>
<path d="" fill="#D5814B" transform="translate(0,0)"/>
<path d="" fill="#E3874C" transform="translate(0,0)"/>
<path d="" fill="#DF874F" transform="translate(0,0)"/>
<path d="" fill="#D9824D" transform="translate(0,0)"/>
<path d="" fill="#E88B52" transform="translate(0,0)"/>
<path d="" fill="#DD834F" transform="translate(0,0)"/>
<path d="" fill="#DF854E" transform="translate(0,0)"/>
<path d="" fill="#DC854B" transform="translate(0,0)"/>
<path d="" fill="#D8814D" transform="translate(0,0)"/>
<path d="" fill="#D7824C" transform="translate(0,0)"/>
<path d="" fill="#D9814B" transform="translate(0,0)"/>
<path d="" fill="#E38750" transform="translate(0,0)"/>
<path d="" fill="#E3884F" transform="translate(0,0)"/>
<path d="" fill="#E2864C" transform="translate(0,0)"/>
<path d="" fill="#E1874E" transform="translate(0,0)"/>
<path d="" fill="#E58A52" transform="translate(0,0)"/>
<path d="" fill="#E68850" transform="translate(0,0)"/>
<path d="" fill="#D17E4A" transform="translate(0,0)"/>
<path d="" fill="#E78D51" transform="translate(0,0)"/>
<path d="" fill="#E88A50" transform="translate(0,0)"/>
<path d="" fill="#E68A52" transform="translate(0,0)"/>
<path d="" fill="#E88A51" transform="translate(0,0)"/>
<path d="" fill="#E78A51" transform="translate(0,0)"/>
<path d="" fill="#DB834B" transform="translate(0,0)"/>
<path d="" fill="#E2854B" transform="translate(0,0)"/>
<path d="" fill="#D5814C" transform="translate(0,0)"/>
<path d="" fill="#D7844D" transform="translate(0,0)"/>
<path d="" fill="#E88B52" transform="translate(0,0)"/>
<path d="" fill="#DE854D" transform="translate(0,0)"/>
<path d="" fill="#DB854C" transform="translate(0,0)"/>
<path d="" fill="#E4894E" transform="translate(0,0)"/>
<path d="" fill="#E78B50" transform="translate(0,0)"/>
<path d="" fill="#E78B52" transform="translate(0,0)"/>
<path d="" fill="#E88C52" transform="translate(0,0)"/>
<path d="" fill="#E08650" transform="translate(0,0)"/>
<path d="" fill="#E1874F" transform="translate(0,0)"/>
<path d="" fill="#EB8C52" transform="translate(0,0)"/>
<path d="" fill="#D6824D" transform="translate(0,0)"/>
<path d="" fill="#E98B50" transform="translate(0,0)"/>
<path d="" fill="#D5814D" transform="translate(0,0)"/>
<path d="" fill="#D07F4B" transform="translate(0,0)"/>
<path d="" fill="#E68B4E" transform="translate(0,0)"/>
<path d="" fill="#E4894F" transform="translate(0,0)"/>
<path d="" fill="#D37F4E" transform="translate(0,0)"/>
<path d="" fill="#E88B4E" transform="translate(0,0)"/>
<path d="" fill="#D7844F" transform="translate(0,0)"/>
<path d="" fill="#E88B4E" transform="translate(0,0)"/>
<path d="" fill="#D9834A" transform="translate(0,0)"/>
<path d="" fill="#D7854D" transform="translate(0,0)"/>
<path d="" fill="#D3814E" transform="translate(0,0)"/>
<path d="" fill="#E1884C" transform="translate(0,0)"/>
<path d="" fill="#DA8750" transform="translate(0,0)"/>
<path d="" fill="#DB8650" transform="translate(0,0)"/>
<path d="" fill="#D6824A" transform="translate(0,0)"/>
<path d="" fill="#DD864B" transform="translate(0,0)"/>
<path d="" fill="#E78950" transform="translate(0,0)"/>
<path d="" fill="#DB824A" transform="translate(0,0)"/>
<path d="" fill="#E68C51" transform="translate(0,0)"/>
<path d="" fill="#D68147" transform="translate(0,0)"/>
<path d="" fill="#E28A4F" transform="translate(0,0)"/>
<path d="" fill="#E38B50" transform="translate(0,0)"/>
<path d="" fill="#E18950" transform="translate(0,0)"/>
<path d="" fill="#E78C51" transform="translate(0,0)"/>
<path d="" fill="#E18A50" transform="translate(0,0)"/>
<path d="" fill="#E58A50" transform="translate(0,0)"/>
<path d="" fill="#E48C51" transform="translate(0,0)"/>
<path d="" fill="#DC864F" transform="translate(0,0)"/>
<path d="" fill="#E78C51" transform="translate(0,0)"/>
<path d="" fill="#E38B4F" transform="translate(0,0)"/>
<path d="" fill="#DE864F" transform="translate(0,0)"/>
<path d="" fill="#E38B51" transform="translate(0,0)"/>
<path d="" fill="#DD864D" transform="translate(0,0)"/>
<path d="" fill="#DF874E" transform="translate(0,0)"/>
<path d="" fill="#DF864D" transform="translate(0,0)"/>
<path d="" fill="#E48B51" transform="translate(0,0)"/>
<path d="" fill="#E88C50" transform="translate(0,0)"/>
<path d="" fill="#DD854B" transform="translate(0,0)"/>
<path d="" fill="#E28A4F" transform="translate(0,0)"/>
<path d="" fill="#E38B52" transform="translate(0,0)"/>
<path d="" fill="#DB864F" transform="translate(0,0)"/>
<path d="" fill="#DD864F" transform="translate(0,0)"/>
<path d="" fill="#E48951" transform="translate(0,0)"/>
<path d="" fill="#E48B51" transform="translate(0,0)"/>
<path d="" fill="#E0884D" transform="translate(0,0)"/>
<path d="" fill="#E78D53" transform="translate(0,0)"/>
<path d="" fill="#E88D53" transform="translate(0,0)"/>
<path d="" fill="#E78C51" transform="translate(0,0)"/>
<path d="" fill="#DE874C" transform="translate(0,0)"/>
<path d="" fill="#E98D53" transform="translate(0,0)"/>
<path d="" fill="#E98D52" transform="translate(0,0)"/>
<path d="" fill="#E78E53" transform="translate(0,0)"/>
<path d="" fill="#E38A52" transform="translate(0,0)"/>
<path d="" fill="#E08750" transform="translate(0,0)"/>
<path d="" fill="#D07F46" transform="translate(0,0)"/>
<path d="" fill="#E38952" transform="translate(0,0)"/>
<path d="" fill="#CF7D45" transform="translate(0,0)"/>
<path d="" fill="#E58B50" transform="translate(0,0)"/>
<path d="" fill="#D1814C" transform="translate(0,0)"/>
<path d="" fill="#E0874F" transform="translate(0,0)"/>
<path d="" fill="#E98B4E" transform="translate(0,0)"/>
<path d="" fill="#E68C50" transform="translate(0,0)"/>
<path d="" fill="#E88B53" transform="translate(0,0)"/>
<path d="" fill="#E78C51" transform="translate(0,0)"/>
<path d="" fill="#E88E53" transform="translate(0,0)"/>
<path d="" fill="#E78E51" transform="translate(0,0)"/>
<path d="" fill="#E88D50" transform="translate(0,0)"/>
<path d="" fill="#E78D51" transform="translate(0,0)"/>
<path d="" fill="#E68E51" transform="translate(0,0)"/>
<path d="" fill="#E48B51" transform="translate(0,0)"/>
<path d="" fill="#D7824A" transform="translate(0,0)"/>
<path d="" fill="#D2824D" transform="translate(0,0)"/>
<path d="" fill="#E38950" transform="translate(0,0)"/>
<path d="" fill="#DF8A50" transform="translate(0,0)"/>
<path d="" fill="#D68149" transform="translate(0,0)"/>
<path d="" fill="#E18A51" transform="translate(0,0)"/>
<path d="" fill="#E18A4F" transform="translate(0,0)"/>
<path d="" fill="#CD7D45" transform="translate(0,0)"/>
<path d="" fill="#E3894E" transform="translate(0,0)"/>
<path d="" fill="#E58D51" transform="translate(0,0)"/>
<path d="" fill="#E48B53" transform="translate(0,0)"/>
<path d="" fill="#E48C52" transform="translate(0,0)"/>
<path d="" fill="#E68D52" transform="translate(0,0)"/>
<path d="" fill="#E38B53" transform="translate(0,0)"/>
<path d="" fill="#E18A53" transform="translate(0,0)"/>
<path d="" fill="#D68249" transform="translate(0,0)"/>
<path d="" fill="#E28952" transform="translate(0,0)"/>
<path d="" fill="#CB7F4C" transform="translate(0,0)"/>
<path d="" fill="#E48950" transform="translate(0,0)"/>
<path d="" fill="#E38C52" transform="translate(0,0)"/>
<path d="" fill="#E18951" transform="translate(0,0)"/>
<path d="" fill="#E28A51" transform="translate(0,0)"/>
<path d="" fill="#E38A53" transform="translate(0,0)"/>
<path d="" fill="#CF7F47" transform="translate(0,0)"/>
<path d="" fill="#DC8A50" transform="translate(0,0)"/>
<path d="" fill="#DD8A4F" transform="translate(0,0)"/>
<path d="" fill="#E38B51" transform="translate(0,0)"/>
<path d="" fill="#D7874D" transform="translate(0,0)"/>
<path d="" fill="#D8864A" transform="translate(0,0)"/>
<path d="" fill="#E98B53" transform="translate(0,0)"/>
<path d="" fill="#E08A52" transform="translate(0,0)"/>
<path d="" fill="#D5864B" transform="translate(0,0)"/>
<path d="" fill="#D8844B" transform="translate(0,0)"/>
<path d="" fill="#E38B50" transform="translate(0,0)"/>
<path d="" fill="#D9854D" transform="translate(0,0)"/>
<path d="" fill="#DA864C" transform="translate(0,0)"/>
<path d="" fill="#E58B51" transform="translate(0,0)"/>
<path d="" fill="#E58D51" transform="translate(0,0)"/>
<path d="" fill="#E58C51" transform="translate(0,0)"/>
<path d="" fill="#E1874F" transform="translate(0,0)"/>
<path d="" fill="#E58D53" transform="translate(0,0)"/>
<path d="" fill="#E89052" transform="translate(0,0)"/>
<path d="" fill="#E58E51" transform="translate(0,0)"/>
<path d="" fill="#E78D51" transform="translate(0,0)"/>
<path d="" fill="#E88D55" transform="translate(0,0)"/>
<path d="" fill="#D7844E" transform="translate(0,0)"/>
<path d="" fill="#E99153" transform="translate(0,0)"/>
<path d="" fill="#E18B51" transform="translate(0,0)"/>
<path d="" fill="#DD864E" transform="translate(0,0)"/>
<path d="" fill="#E58A51" transform="translate(0,0)"/>
<path d="" fill="#E88D52" transform="translate(0,0)"/>
<path d="" fill="#E48951" transform="translate(0,0)"/>
<path d="" fill="#E38E50" transform="translate(0,0)"/>
<path d="" fill="#E78D50" transform="translate(0,0)"/>
<path d="" fill="#E38A50" transform="translate(0,0)"/>
<path d="" fill="#E28A50" transform="translate(0,0)"/>
<path d="" fill="#E68D51" transform="translate(0,0)"/>
<path d="" fill="#EB8F53" transform="translate(0,0)"/>
<path d="" fill="#E48750" transform="translate(0,0)"/>
<path d="" fill="#E58F54" transform="translate(0,0)"/>
<path d="" fill="#E68C50" transform="translate(0,0)"/>
<path d="" fill="#E88A4E" transform="translate(0,0)"/>
<path d="" fill="#E18952" transform="translate(0,0)"/>
<path d="" fill="#EA8E53" transform="translate(0,0)"/>
<path d="" fill="#E1884F" transform="translate(0,0)"/>
<path d="" fill="#E28751" transform="translate(0,0)"/>
<path d="" fill="#C77D49" transform="translate(0,0)"/>
<path d="" fill="#E98D52" transform="translate(0,0)"/>
<path d="" fill="#DA894E" transform="translate(0,0)"/>
<path d="" fill="#E48A4F" transform="translate(0,0)"/>
<path d="" fill="#E48A50" transform="translate(0,0)"/>
<path d="" fill="#E48C54" transform="translate(0,0)"/>
<path d="" fill="#E0894F" transform="translate(0,0)"/>
<path d="" fill="#E18B4F" transform="translate(0,0)"/>
<path d="" fill="#E28B50" transform="translate(0,0)"/>
<path d="" fill="#E78A51" transform="translate(0,0)"/>
<path d="" fill="#DE8B50" transform="translate(0,0)"/>
<path d="" fill="#E58A50" transform="translate(0,0)"/>
<path d="" fill="#EB8F53" transform="translate(0,0)"/>
<path d="" fill="#EA8F52" transform="translate(0,0)"/>
<path d="" fill="#E48B52" transform="translate(0,0)"/>
<path d="" fill="#E98D51" transform="translate(0,0)"/>
<path d="" fill="#E0874F" transform="translate(0,0)"/>
<path d="" fill="#E08C50" transform="translate(0,0)"/>
<path d="" fill="#E1884C" transform="translate(0,0)"/>
<path d="" fill="#E68C50" transform="translate(0,0)"/>
<path d="" fill="#E38A4F" transform="translate(0,0)"/>
<path d="" fill="#E48A4E" transform="translate(0,0)"/>
<path d="" fill="#E68C4E" transform="translate(0,0)"/>
<path d="" fill="#E48850" transform="translate(0,0)"/>
<path d="" fill="#E98D4F" transform="translate(0,0)"/>
<path d="" fill="#E68A4F" transform="translate(0,0)"/>
<path d="" fill="#E48A4F" transform="translate(0,0)"/>
<path d="" fill="#E4894E" transform="translate(0,0)"/>
<path d="" fill="#E3894E" transform="translate(0,0)"/>
<path d="" fill="#DB874F" transform="translate(0,0)"/>
<path d="" fill="#DF8F50" transform="translate(0,0)"/>
<path d="" fill="#E18A4F" transform="translate(0,0)"/>
<path d="" fill="#E08B4F" transform="translate(0,0)"/>
<path d="" fill="#E48C51" transform="translate(0,0)"/>
<path d="" fill="#E98C51" transform="translate(0,0)"/>
<path d="" fill="#E98D51" transform="translate(0,0)"/>
<path d="" fill="#E5894F" transform="translate(0,0)"/>
<path d="" fill="#E88B50" transform="translate(0,0)"/>
<path d="" fill="#E38850" transform="translate(0,0)"/>
<path d="" fill="#E98E52" transform="translate(0,0)"/>
<path d="" fill="#DE8750" transform="translate(0,0)"/>
<path d="" fill="#E88E52" transform="translate(0,0)"/>
<path d="" fill="#E4874C" transform="translate(0,0)"/>
<path d="" fill="#E48750" transform="translate(0,0)"/>
<path d="" fill="#DD924E" transform="translate(0,0)"/>
<path d="" fill="#EB8D51" transform="translate(0,0)"/>
<path d="" fill="#DE934D" transform="translate(0,0)"/>
<path d="" fill="#EA8F51" transform="translate(0,0)"/>
<path d="" fill="#E98F51" transform="translate(0,0)"/>
<path d="" fill="#D7834B" transform="translate(0,0)"/>
<path d="" fill="#DB8E4C" transform="translate(0,0)"/>
<path d="" fill="#E48C4F" transform="translate(0,0)"/>
<path d="" fill="#E58A50" transform="translate(0,0)"/>
<path d="" fill="#EA8B4F" transform="translate(0,0)"/>
<path d="" fill="#E58A50" transform="translate(0,0)"/>
<path d="" fill="#D98D4B" transform="translate(0,0)"/>
<path d="" fill="#E48D4F" transform="translate(0,0)"/>
<path d="" fill="#E78B50" transform="translate(0,0)"/>
<path d="" fill="#E88A4D" transform="translate(0,0)"/>
<path d="" fill="#E58D51" transform="translate(0,0)"/>
<path d="" fill="#EA8D51" transform="translate(0,0)"/>
<path d="" fill="#DD9450" transform="translate(0,0)"/>
<path d="" fill="#DB8C4F" transform="translate(0,0)"/>
<path d="" fill="#E58B51" transform="translate(0,0)"/>
<path d="" fill="#E48B51" transform="translate(0,0)"/>
<path d="" fill="#E68C50" transform="translate(0,0)"/>
<path d="" fill="#DE894E" transform="translate(0,0)"/>
<path d="" fill="#DA9350" transform="translate(0,0)"/>
<path d="" fill="#EB8E52" transform="translate(0,0)"/>
<path d="" fill="#E48A50" transform="translate(0,0)"/>
<path d="" fill="#EA8C50" transform="translate(0,0)"/>
<path d="" fill="#EC8D51" transform="translate(0,0)"/>
<path d="" fill="#E58B50" transform="translate(0,0)"/>
<path d="" fill="#E88D51" transform="translate(0,0)"/>
<path d="" fill="#D28D4A" transform="translate(0,0)"/>
<path d="" fill="#E08850" transform="translate(0,0)"/>
<path d="" fill="#EE8F52" transform="translate(0,0)"/>
<path d="" fill="#E98A50" transform="translate(0,0)"/>
<path d="" fill="#E38B4F" transform="translate(0,0)"/>
<path d="" fill="#EA8E51" transform="translate(0,0)"/>
<path d="" fill="#ED9154" transform="translate(0,0)"/>
<path d="" fill="#E68B51" transform="translate(0,0)"/>
<path d="" fill="#EE9055" transform="translate(0,0)"/>
<path d="" fill="#E58C55" transform="translate(0,0)"/>
<path d="" fill="#E38A50" transform="translate(0,0)"/>
<path d="" fill="#B46F41" transform="translate(0,0)"/>
<path d="" fill="#B77B3C" transform="translate(0,0)"/>
<path d="" fill="#E28A50" transform="translate(0,0)"/>
<path d="" fill="#E48A50" transform="translate(0,0)"/>
<path d="" fill="#E5884F" transform="translate(0,0)"/>
<path d="" fill="#E98A50" transform="translate(0,0)"/>
<path d="" fill="#B87D3D" transform="translate(0,0)"/>
<path d="" fill="#EC8F51" transform="translate(0,0)"/>
<path d="" fill="#EB8D52" transform="translate(0,0)"/>
<path d="" fill="#ED9053" transform="translate(0,0)"/>
<path d="" fill="#E78C52" transform="translate(0,0)"/>
<path d="" fill="#E88D50" transform="translate(0,0)"/>
<path d="" fill="#DC854B" transform="translate(0,0)"/>
<path d="" fill="#E48A51" transform="translate(0,0)"/>
<path d="" fill="#E5894F" transform="translate(0,0)"/>
<path d="" fill="#E58850" transform="translate(0,0)"/>
<path d="" fill="#E2874E" transform="translate(0,0)"/>
<path d="" fill="#E0884E" transform="translate(0,0)"/>
<path d="" fill="#E88C52" transform="translate(0,0)"/>
<path d="" fill="#E3874C" transform="translate(0,0)"/>
<path d="" fill="#E6894E" transform="translate(0,0)"/>
<path d="" fill="#DF884D" transform="translate(0,0)"/>
<path d="" fill="#DD844D" transform="translate(0,0)"/>
<path d="" fill="#DC874E" transform="translate(0,0)"/>
<path d="" fill="#DC854B" transform="translate(0,0)"/>
<path d="" fill="#D9854E" transform="translate(0,0)"/>
<path d="" fill="#E3884E" transform="translate(0,0)"/>
<path d="" fill="#DA834D" transform="translate(0,0)"/>
<path d="" fill="#D8824C" transform="translate(0,0)"/>
<path d="" fill="#B9713D" transform="translate(0,0)"/>
<path d="" fill="#D8824A" transform="translate(0,0)"/>
<path d="" fill="#B36D3B" transform="translate(0,0)"/>
<path d="" fill="#CD7E49" transform="translate(0,0)"/>
<path d="" fill="#E0844F" transform="translate(0,0)"/>
<path d="" fill="#DE854E" transform="translate(0,0)"/>
<path d="" fill="#C67946" transform="translate(0,0)"/>
<path d="" fill="#D37F4A" transform="translate(0,0)"/>
<path d="" fill="#BC7343" transform="translate(0,0)"/>
<path d="" fill="#D8824B" transform="translate(0,0)"/>
<path d="" fill="#D27E4A" transform="translate(0,0)"/>
<path d="" fill="#D9824B" transform="translate(0,0)"/>
<path d="" fill="#BA723E" transform="translate(0,0)"/>
<path d="" fill="#D8814A" transform="translate(0,0)"/>
<path d="" fill="#D9814B" transform="translate(0,0)"/>
<path d="" fill="#D9814B" transform="translate(0,0)"/>
<path d="" fill="#D17D4A" transform="translate(0,0)"/>
<path d="" fill="#C87945" transform="translate(0,0)"/>
<path d="" fill="#D37E4A" transform="translate(0,0)"/>
<path d="" fill="#CF7E49" transform="translate(0,0)"/>
<path d="" fill="#CD7B47" transform="translate(0,0)"/>
<path d="" fill="#C57746" transform="translate(0,0)"/>
<path d="" fill="#CD7B48" transform="translate(0,0)"/>
<path d="" fill="#7A502F" transform="translate(0,0)"/>
<path d="" fill="#C87846" transform="translate(0,0)"/>
<path d="" fill="#CB7A47" transform="translate(0,0)"/>
<path d="" fill="#CD7B47" transform="translate(0,0)"/>
<path d="" fill="#CA7B47" transform="translate(0,0)"/>
<path d="" fill="#C47845" transform="translate(0,0)"/>
<path d="" fill="#C87A44" transform="translate(0,0)"/>
<path d="" fill="#BA7240" transform="translate(0,0)"/>
<path d="" fill="#C67745" transform="translate(0,0)"/>
<path d="" fill="#BB7141" transform="translate(0,0)"/>
<path d="" fill="#B67344" transform="translate(0,0)"/>
<path d="" fill="#BF7545" transform="translate(0,0)"/>
<path d="" fill="#A5673D" transform="translate(0,0)"/>
<path d="" fill="#B87240" transform="translate(0,0)"/>
<path d="" fill="#B36E40" transform="translate(0,0)"/>
<path d="" fill="#9B5F39" transform="translate(0,0)"/>
<path d="" fill="#9A5D37" transform="translate(0,0)"/>
<path d="" fill="#8D5531" transform="translate(0,0)"/>
<path d="" fill="#804E2C" transform="translate(0,0)"/>
</svg>
