<svg width="50" height="50" version="1.1" xmlns="http://www.w3.org/2000/svg" desc="Created with imagetracer.js version 1.2.6" ><path fill="rgb(0,0,0)" stroke="rgb(0,0,0)" stroke-width="1" opacity="0.07058823529411765" d="M 47.5 16 L 48 18.5 L 47 18.5 L 47.5 16 Z " /><path fill="rgb(0,0,0)" stroke="rgb(0,0,0)" stroke-width="1" opacity="0.07058823529411765" d="M 4.5 20 L 6.5 23 L 4.5 20 Z " /><path fill="rgb(0,0,0)" stroke="rgb(0,0,0)" stroke-width="1" opacity="0.07058823529411765" d="M 25.5 21 L 28 21.5 L 25.5 22 L 25.5 21 Z " /><path fill="rgb(0,0,0)" stroke="rgb(0,0,0)" stroke-width="1" opacity="0.07058823529411765" d="M 25.5 29 L 28 29.5 L 25.5 30 L 25.5 29 Z " /><path fill="rgb(0,0,0)" stroke="rgb(0,0,0)" stroke-width="1" opacity="0.07058823529411765" d="M 13.5 37 L 14.5 39 L 13.5 37 Z " /><path fill="rgb(0,0,0)" stroke="rgb(0,0,0)" stroke-width="1" opacity="0" d="M 0 0 L 49.5 0 L 50 0.5 L 50 11.5 L 49 11.5 Q 49.8 9.3 47.5 10 Q 46.3 7.8 41.5 9 L 39 10 Q 37.5 16.3 32.5 20 L 30.5 21 L 19 21 Q 20.3 17.7 15.5 19 L 8.5 24 L 0 17 L 0 0 Z " /><path fill="rgb(0,0,0)" stroke="rgb(0,0,0)" stroke-width="1" opacity="0" d="M 42.5 12 Q 46.3 11.3 47 13.5 L 48 15.5 L 46 25.5 L 39.5 34 Q 35.5 38 27.5 38 L 22.5 34 L 20 34 L 19.5 38 L 13 33.5 L 11 29.5 L 12.5 30 Q 19 34 31.5 32 Q 38.7 30.2 42 24.5 Q 44.8 22.5 44 18 L 41 19.5 L 35.5 27 L 23.5 30 L 14.5 28 L 11 25.5 L 14 23.5 Q 13.1 26.9 18.5 25 L 19.5 24 Q 28.4 25.4 33.5 23 L 39 17.5 L 42.5 12 Z " /><path fill="rgb(0,0,0)" stroke="rgb(0,0,0)" stroke-width="1" opacity="0" d="M 0.5 20 L 3 24 L 5 24.5 L 5 32.5 L 8 34 L 8.5 31 L 14.5 39 Q 17.4 41.6 23.5 41 L 25.5 40 Q 27 42.5 32.5 41 Q 41.2 38.2 46 31.5 L 49.5 23 L 50 50 L 0 50 L 0.5 20 Z " /><path fill="rgb(0,0,0)" stroke="rgb(0,0,0)" stroke-width="1" opacity="0.7725490196078432" d="M 40.5 10 L 39.5 12 L 40.5 10 Z " /><path fill="rgb(0,0,0)" stroke="rgb(0,0,0)" stroke-width="1" opacity="0.7725490196078432" d="M 47.5 10 L 48.5 12 L 47.5 10 Z " /><path fill="rgb(0,0,0)" stroke="rgb(0,0,0)" stroke-width="1" opacity="0.7725490196078432" d="M 0 17 L 2 17.5 L 0 18.5 L 0 17 Z " /><path fill="rgb(0,0,0)" stroke="rgb(0,0,0)" stroke-width="1" opacity="0.7725490196078432" d="M 3.5 22 L 5.5 25 L 3.5 22 Z " /><path fill="rgb(0,0,0)" stroke="rgb(0,0,0)" stroke-width="1" opacity="0.8823529411764706" d="M 41.5 11 L 40.5 13 L 41.5 11 Z " /><path fill="rgb(0,0,0)" stroke="rgb(0,0,0)" stroke-width="1" opacity="0.8823529411764706" d="M 46.5 11 L 47.5 13 L 46.5 11 Z " /><path fill="rgb(0,0,0)" stroke="rgb(0,0,0)" stroke-width="1" opacity="0.8823529411764706" d="M 4.5 21 L 5.5 23 L 4.5 21 Z " /><path fill="rgb(0,0,0)" stroke="rgb(0,0,0)" stroke-width="1" opacity="0.8823529411764706" d="M 12.5 21 L 15.5 25 L 12.5 21 Z " /><path fill="rgb(0,0,0)" stroke="rgb(0,0,0)" stroke-width="1" opacity="0.8823529411764706" d="M 47.5 22 L 48.5 24 L 47.5 22 Z " /><path fill="rgb(0,0,0)" stroke="rgb(0,0,0)" stroke-width="1" opacity="0.8823529411764706" d="M 46.5 25 L 47.5 27 L 46.5 25 Z " /><path fill="rgb(0,0,0)" stroke="rgb(0,0,0)" stroke-width="1" opacity="0.8823529411764706" d="M 14.5 28 L 13.5 30 L 14.5 28 Z " /><path fill="rgb(0,0,0)" stroke="rgb(0,0,0)" stroke-width="1" opacity="0.8823529411764706" d="M 17.5 29 L 16.5 31 L 17.5 29 Z " /><path fill="rgb(0,0,0)" stroke="rgb(0,0,0)" stroke-width="1" opacity="0.9764705882352941" d="M 36.5 17 L 38 17.5 L 34.5 20 L 36.5 17 Z " /><path fill="rgb(0,0,0)" stroke="rgb(0,0,0)" stroke-width="1" opacity="0.9764705882352941" d="M 6.5 23 L 7.5 25 L 6.5 23 Z " /><path fill="rgb(0,0,0)" stroke="rgb(0,0,0)" stroke-width="1" opacity="0.9764705882352941" d="M 38.5 25 L 37.5 27 L 38.5 25 Z " /><path fill="rgb(0,0,0)" stroke="rgb(0,0,0)" stroke-width="1" opacity="0.9764705882352941" d="M 5 28 L 7 28.5 L 5 29.5 L 5 28 Z " /><path fill="rgb(0,0,0)" stroke="rgb(0,0,0)" stroke-width="1" opacity="0.9764705882352941" d="M 11.5 34 L 13.5 37 L 11.5 34 Z " /><path fill="rgb(0,0,0)" stroke="rgb(0,0,0)" stroke-width="1" opacity="1" d="M 41.5 10 Q 47.8 8.8 49 12.5 L 49 22.5 Q 46.8 30.3 41.5 35 Q 36.5 40 26.5 40 L 23 38 Q 24.3 41.3 19.5 40 L 10 32.5 L 9 26 Q 6.3 24.9 7 27.5 L 6 27.5 L 6 24.5 L 1 18.5 L 3 19.5 L 7.5 25 Q 10.8 26.1 10 23.5 L 17.5 20 L 17 21.5 L 18 23.5 L 15 24 Q 16.1 21.3 13.5 22 L 10 27 Q 16.8 31.9 31.5 30 L 39 25.5 L 42.5 19 L 43 20.5 L 37.5 28 L 31.5 31 Q 25.2 29.3 23.5 32 L 10 28 Q 10.3 34.4 15.5 37 L 21.5 39 L 21 37.5 L 21.5 35 L 26.5 39 L 31.5 39 Q 40.5 36.5 45 29.5 Q 49.5 24 48 12.5 Q 46.8 9.8 41.5 11 L 37.5 17 L 38 15.5 L 41.5 10 Z " /><path fill="rgb(0,0,0)" stroke="rgb(0,0,0)" stroke-width="1" opacity="1" d="M 36.5 18 L 34.5 21 Q 29.8 24.8 19.5 23 L 19.5 22 Q 32.2 24.2 36.5 18 Z " /><path fill="rgb(0,0,0)" stroke="rgb(0,0,0)" stroke-width="1" opacity="1" d="M 6.5 29 L 7 32.5 L 6 32.5 L 6.5 29 Z " /><path fill="rgb(0,0,0)" stroke="rgb(0,0,0)" stroke-width="1" opacity="0.596078431372549" d="M 37.5 18 L 35.5 21 L 37.5 18 Z " /><path fill="rgb(0,0,0)" stroke="rgb(0,0,0)" stroke-width="1" opacity="0.596078431372549" d="M 12.5 33 L 14.5 36 L 12.5 33 Z " /><path fill="rgb(0,0,0)" stroke="rgb(0,0,0)" stroke-width="1" opacity="0.3686274509803922" d="M 35.5 17 L 33.5 20 L 35.5 17 Z " /><path fill="rgb(0,0,0)" stroke="rgb(0,0,0)" stroke-width="1" opacity="0.3686274509803922" d="M 11.5 21 L 9.5 24 L 11.5 21 Z " /><path fill="rgb(0,0,0)" stroke="rgb(0,0,0)" stroke-width="1" opacity="0.3686274509803922" d="M 38.5 24 L 36.5 27 L 38.5 24 Z " /><path fill="rgb(0,0,0)" stroke="rgb(0,0,0)" stroke-width="1" opacity="0.3686274509803922" d="M 41.5 24 L 40.5 26 L 41.5 24 Z " /><path fill="rgb(0,0,0)" stroke="rgb(0,0,0)" stroke-width="1" opacity="0.3686274509803922" d="M 38.5 27 L 37.5 29 L 38.5 27 Z " /><path fill="rgb(0,0,0)" stroke="rgb(0,0,0)" stroke-width="1" opacity="0.3686274509803922" d="M 42.5 31 L 40.5 34 L 42.5 31 Z " /><path fill="rgb(0,0,0)" stroke="rgb(0,0,0)" stroke-width="1" opacity="0.3686274509803922" d="M 44.5 32 L 41.5 36 L 44.5 32 Z " /><path fill="rgb(0,0,0)" stroke="rgb(0,0,0)" stroke-width="1" opacity="0.3686274509803922" d="M 11.5 35 L 12.5 37 L 11.5 35 Z " /></svg>